<svg width="462" height="387" viewBox="0 0 462 387" fill="none" xmlns="http://www.w3.org/2000/svg">
<g clip-path="url(#clip0_2353_6677)">
<path d="M327.836 380.816C327.53 384.175 325.082 386.617 321.64 386.923C320.799 386.999 319.881 386.999 318.963 386.999H301.064C270.392 386.999 239.719 386.999 209.047 386.999H163.918C148.849 386.999 133.781 386.999 118.789 386.999C88.116 386.999 57.4435 386.999 26.771 386.999H8.94877C8.03089 386.999 7.1895 386.999 6.27162 386.923C2.75307 386.617 0.305391 384.175 0.0759205 380.816C-0.15355 377.534 1.91168 374.557 5.35374 373.87C6.80705 373.565 8.41334 373.565 9.94314 373.565H40.9216C81.9968 373.565 123.072 373.565 164.071 373.565C205.146 373.565 246.144 373.565 287.22 373.565H318.198C319.728 373.565 321.258 373.488 322.711 373.87C326 374.633 328.142 377.534 327.836 380.816Z" fill="#F26E65"/>
<path d="M38.932 361.428C38.932 361.428 38.8555 361.352 38.8555 361.275H38.932C38.932 361.352 38.932 361.352 38.932 361.428Z" fill="black"/>
<path d="M140.512 124.038C133.552 123.885 127.815 118.084 127.891 111.291C127.968 104.345 134.164 98.3907 141.048 98.6197C147.932 98.8487 153.592 104.803 153.439 111.596C153.21 118.618 147.473 124.191 140.512 124.038Z" fill="#F26E65"/>
<path d="M202.163 111.367C202.163 118.313 196.502 123.962 189.542 124.038C182.581 124.115 176.844 118.466 176.844 111.52C176.768 104.421 182.581 98.5435 189.618 98.6199C196.502 98.6962 202.239 104.497 202.163 111.367Z" fill="#F26E65"/>
<path d="M425.971 111.75C425.818 116.864 421.688 120.757 416.487 120.681C411.209 120.604 407.155 116.253 407.384 110.987C407.614 105.949 411.821 101.979 416.946 102.056C422.223 102.208 426.201 106.407 425.971 111.75Z" fill="black"/>
<path d="M378.319 120.68C373.194 120.68 368.987 116.71 368.91 111.672C368.757 106.482 372.964 102.131 378.166 102.055C383.367 102.055 387.727 106.329 387.574 111.52C387.497 116.558 383.367 120.603 378.319 120.68Z" fill="black"/>
<path d="M339.768 120.681C334.49 120.757 330.359 116.635 330.359 111.292C330.359 106.178 334.49 102.132 339.615 102.056C344.663 101.979 348.87 106.025 349.023 111.139C349.176 116.406 345.122 120.604 339.768 120.681Z" fill="black"/>
<path d="M349.023 111.063C349.176 116.33 345.045 120.604 339.768 120.681C334.49 120.757 330.359 116.635 330.359 111.292C330.359 106.178 334.49 102.132 339.615 102.056C344.663 101.979 348.946 106.025 349.023 111.063Z" fill="#F26E65"/>
<path d="M387.574 111.444C387.497 116.558 383.367 120.603 378.319 120.68C373.194 120.68 368.987 116.71 368.91 111.596C368.757 106.406 372.964 102.055 378.166 101.979C383.367 101.979 387.65 106.253 387.574 111.444Z" fill="#F26E65"/>
<path d="M425.971 111.75C425.818 116.864 421.611 120.757 416.487 120.681C411.209 120.604 407.155 116.253 407.384 110.987C407.614 105.949 411.821 101.979 416.946 102.056C422.223 102.132 426.124 106.407 425.971 111.75Z" fill="#F26E65"/>
<g filter="url(#filter0_biiiiii_2353_6677)">
<path d="M204.993 134.573C207.364 133.733 209.735 132.894 212.106 131.978C216.772 130.222 219.296 126.787 219.373 121.826C219.449 114.803 219.449 107.857 219.373 100.835C219.296 95.873 216.772 92.4381 212.106 90.6824C180.898 79.1564 149.614 79.1564 118.329 90.6061C113.587 92.3617 111.063 95.7203 110.986 100.682C110.833 107.781 110.833 114.956 110.986 122.055C111.063 127.016 113.663 130.222 118.406 132.054C129.573 136.329 140.97 139.077 152.903 139.916C154.433 139.993 155.886 140.222 158.257 140.451C150.991 146.939 146.784 154.266 147.166 163.426C147.548 172.51 151.832 179.608 159.098 185.028C158.946 185.41 158.869 185.715 158.716 186.097C153.285 184.952 147.701 184.188 142.424 182.509C100.584 169.304 78.7839 123.047 95.8412 82.6677C109.38 50.6085 139.823 33.3576 173.632 36.7925C206.293 40.1511 233.141 65.4931 238.878 97.8576C241.096 110.376 240.178 122.665 236.277 134.726C234.977 138.924 229.622 140.679 225.568 139.153C220.902 137.397 215.854 136.481 210.959 135.413C209.046 135.031 206.981 135.336 204.993 135.336C204.993 135.26 204.993 134.878 204.993 134.573Z" fill="white" fill-opacity="0.01"/>
<path d="M280.641 111.597C280.641 117.704 280.718 123.81 280.641 129.917C280.565 137.855 274.981 143.733 267.485 143.885C260.065 144.038 253.946 137.932 253.87 129.84C253.793 117.627 253.64 105.414 253.946 93.2014C254.023 90.2245 255.323 87.0185 256.929 84.4233C258.23 82.286 258.459 80.7594 257.694 78.5458C243.62 39.3114 204.151 9.84753 155.962 13.6641C119.324 16.5647 83.1438 44.5783 72.2822 79.6144C71.8998 80.8357 72.3587 82.3623 72.8177 83.7363C73.8885 87.0185 76.0303 90.2245 76.1068 93.583C76.4892 105.643 76.4127 117.704 76.2597 129.764C76.1832 138.008 70.2935 143.962 62.7975 143.885C55.225 143.809 49.5647 137.779 49.4882 129.611C49.4117 117.627 49.5647 105.72 49.4882 93.7357C49.4882 88.3162 51.4769 84.1943 55.9899 81.141C57.2137 80.3014 58.1316 78.6984 58.667 77.2481C74.5005 33.4339 105.326 6.79427 151.526 0.993088C195.661 -4.50277 231.382 12.3665 257.159 48.6239C263.201 57.0966 266.567 67.4014 271.309 76.7138C272.227 78.5458 273.451 80.3777 274.981 81.6753C278.576 84.6523 280.565 88.2398 280.565 92.8197C280.641 99.1552 280.641 105.338 280.641 111.597Z" fill="white" fill-opacity="0.01"/>
<path d="M257.694 156.556C250.734 161.213 243.085 164.495 235.053 167.014C231.993 167.93 228.857 168.54 225.874 169.533C224.497 169.991 223.121 170.83 222.126 171.823C219.143 174.723 215.625 176.174 211.494 176.174C199.409 176.174 187.323 176.174 175.238 176.174C167.13 176.174 161.317 170.754 161.011 163.274C160.781 155.64 166.442 149.534 174.626 149.458C187.094 149.229 199.562 149.381 212.03 149.458C216.007 149.458 219.602 150.908 222.126 154.037C223.58 155.793 224.956 156.251 227.022 155.411C232.452 153.274 238.036 151.442 243.391 149.152C245.379 148.313 246.603 148.16 248.362 149.763C251.193 152.206 254.405 154.19 257.694 156.556Z" fill="white" fill-opacity="0.01"/>
<path d="M38.8561 361.277C37.8617 361.353 36.9438 361.43 35.9495 361.43C28.071 361.43 20.9574 358.682 15.6796 354.255C14.6087 353.415 13.6144 352.575 12.62 351.583C0.764038 339.904 -1.53066 321.661 8.18357 307.998C14.7617 298.762 22.7167 290.442 29.9832 281.664C30.2892 281.816 30.6717 282.045 30.9776 282.198C30.9776 291.663 30.9011 301.052 30.9011 310.517C30.9011 317.845 30.9776 325.096 31.1306 332.348C31.2836 338.607 32.6604 344.866 34.2667 350.972C35.1846 354.484 37.7087 357.537 38.8561 361.277Z" fill="white" fill-opacity="0.01"/>
<path d="M291.12 361.277C292.115 361.353 293.033 361.43 294.027 361.43C301.905 361.43 309.019 358.682 314.297 354.255C315.368 353.415 316.362 352.575 317.356 351.583C329.289 339.904 331.584 321.661 321.869 308.074C315.291 298.838 307.336 290.518 300.07 281.74C299.764 281.893 299.381 282.122 299.075 282.274C299.075 291.739 299.152 301.128 299.152 310.593C299.152 317.921 299.075 325.172 298.922 332.424C298.769 338.683 297.393 344.942 295.786 351.049C294.792 354.56 292.344 357.537 291.12 361.277Z" fill="white" fill-opacity="0.01"/>
<path d="M457.639 82.8203C452.591 69.9203 444.33 59.9972 433.851 52.2114C426.661 46.4103 417.482 41.8304 407.079 38.7008C398.053 36.0292 388.033 34.5789 377.554 34.5789C372.735 34.5789 368.069 34.8842 363.556 35.4949C363.48 35.4949 363.48 35.4949 363.403 35.4949C349.788 37.7085 336.479 42.5937 325.694 49.9978C319.957 53.8907 315.062 58.3179 310.855 63.1268C291.885 84.9576 288.749 114.727 304.736 139.764C305.5 140.908 305.424 142.969 304.965 144.343C301.982 153.503 298.846 162.663 295.786 171.823C294.103 176.708 294.18 181.364 298.234 185.181C302.211 188.921 306.801 188.921 311.696 187.089C321.334 183.425 331.125 180.143 340.609 176.097C346.958 173.426 352.848 173.197 359.655 174.418C390.328 179.99 418.17 173.655 441.423 151.977C460.928 133.886 467.047 107.017 457.639 82.8203ZM424.443 148.542C403.714 163.197 380.614 166.022 356.29 159.991C351.548 158.846 347.341 159.075 342.904 160.831C332.807 164.724 322.634 168.464 312.538 172.281C311.849 172.51 311.161 172.662 309.554 173.12C312.767 163.503 315.674 154.724 318.733 146.023C320.187 141.748 319.881 137.779 317.356 134.039C309.937 123.429 307.183 111.903 308.254 100.835C309.631 86.9422 317.203 73.7369 329.595 64.0428C356.902 42.67 399.277 42.441 426.355 63.6611C438.746 73.3552 445.936 85.7209 447.925 98.4682C450.679 116.711 442.877 135.565 424.443 148.542Z" fill="white" fill-opacity="0.01"/>
<path d="M285.384 335.477C285.384 350.667 274.14 361.506 258.383 361.506C227.71 361.582 196.961 361.506 166.289 361.506C134.698 361.506 103.108 361.506 71.5173 361.506C58.7435 361.506 49.0293 354.56 45.7402 342.881C45.0518 340.515 44.8988 337.843 44.8988 335.401C44.8223 298.914 44.8223 262.428 44.8988 225.942C44.8988 211.21 55.4544 200.447 70.2935 200.142C75.0359 200.065 79.7018 200.142 84.4442 200.142C127.126 200.142 169.807 200.142 212.412 200.142C217.231 200.142 222.05 199.913 226.792 200.065H252.11C252.799 200.065 253.411 200.065 254.099 200.065C256.011 200.065 257.924 200.142 259.912 200.142C274.675 200.6 285.307 211.286 285.384 226.018C285.537 262.504 285.537 298.991 285.384 335.477Z" fill="white" fill-opacity="0.01"/>
</g>
</g>
<defs>
<filter id="filter0_biiiiii_2353_6677" x="-47.8828" y="-50.0254" width="559.859" height="463.566" filterUnits="userSpaceOnUse" color-interpolation-filters="sRGB">
<feFlood flood-opacity="0" result="BackgroundImageFix"/>
<feGaussianBlur in="BackgroundImageFix" stdDeviation="25"/>
<feComposite in2="SourceAlpha" operator="in" result="effect1_backgroundBlur_2353_6677"/>
<feBlend mode="normal" in="SourceGraphic" in2="effect1_backgroundBlur_2353_6677" result="shape"/>
<feColorMatrix in="SourceAlpha" type="matrix" values="0 0 0 0 0 0 0 0 0 0 0 0 0 0 0 0 0 0 127 0" result="hardAlpha"/>
<feMorphology radius="36" operator="dilate" in="SourceAlpha" result="effect2_innerShadow_2353_6677"/>
<feOffset dy="39"/>
<feGaussianBlur stdDeviation="28"/>
<feComposite in2="hardAlpha" operator="arithmetic" k2="-1" k3="1"/>
<feColorMatrix type="matrix" values="0 0 0 0 1 0 0 0 0 1 0 0 0 0 1 0 0 0 0.5 0"/>
<feBlend mode="normal" in2="shape" result="effect2_innerShadow_2353_6677"/>
<feColorMatrix in="SourceAlpha" type="matrix" values="0 0 0 0 0 0 0 0 0 0 0 0 0 0 0 0 0 0 127 0" result="hardAlpha"/>
<feMorphology radius="4" operator="dilate" in="SourceAlpha" result="effect3_innerShadow_2353_6677"/>
<feOffset dy="7"/>
<feGaussianBlur stdDeviation="5.5"/>
<feComposite in2="hardAlpha" operator="arithmetic" k2="-1" k3="1"/>
<feColorMatrix type="matrix" values="0 0 0 0 1 0 0 0 0 1 0 0 0 0 1 0 0 0 0.4 0"/>
<feBlend mode="normal" in2="effect2_innerShadow_2353_6677" result="effect3_innerShadow_2353_6677"/>
<feColorMatrix in="SourceAlpha" type="matrix" values="0 0 0 0 0 0 0 0 0 0 0 0 0 0 0 0 0 0 127 0" result="hardAlpha"/>
<feMorphology radius="64" operator="dilate" in="SourceAlpha" result="effect4_innerShadow_2353_6677"/>
<feOffset dy="-82"/>
<feGaussianBlur stdDeviation="34"/>
<feComposite in2="hardAlpha" operator="arithmetic" k2="-1" k3="1"/>
<feColorMatrix type="matrix" values="0 0 0 0 1 0 0 0 0 1 0 0 0 0 1 0 0 0 0.3 0"/>
<feBlend mode="normal" in2="effect3_innerShadow_2353_6677" result="effect4_innerShadow_2353_6677"/>
<feColorMatrix in="SourceAlpha" type="matrix" values="0 0 0 0 0 0 0 0 0 0 0 0 0 0 0 0 0 0 127 0" result="hardAlpha"/>
<feMorphology radius="48" operator="dilate" in="SourceAlpha" result="effect5_innerShadow_2353_6677"/>
<feOffset dy="121"/>
<feGaussianBlur stdDeviation="50"/>
<feComposite in2="hardAlpha" operator="arithmetic" k2="-1" k3="1"/>
<feColorMatrix type="matrix" values="0 0 0 0 1 0 0 0 0 1 0 0 0 0 1 0 0 0 0.35 0"/>
<feBlend mode="normal" in2="effect4_innerShadow_2353_6677" result="effect5_innerShadow_2353_6677"/>
<feColorMatrix in="SourceAlpha" type="matrix" values="0 0 0 0 0 0 0 0 0 0 0 0 0 0 0 0 0 0 127 0" result="hardAlpha"/>
<feOffset dy="-11"/>
<feGaussianBlur stdDeviation="9"/>
<feComposite in2="hardAlpha" operator="arithmetic" k2="-1" k3="1"/>
<feColorMatrix type="matrix" values="0 0 0 0 1 0 0 0 0 1 0 0 0 0 1 0 0 0 0.3 0"/>
<feBlend mode="normal" in2="effect5_innerShadow_2353_6677" result="effect6_innerShadow_2353_6677"/>
<feColorMatrix in="SourceAlpha" type="matrix" values="0 0 0 0 0 0 0 0 0 0 0 0 0 0 0 0 0 0 127 0" result="hardAlpha"/>
<feOffset dy="1"/>
<feComposite in2="hardAlpha" operator="arithmetic" k2="-1" k3="1"/>
<feColorMatrix type="matrix" values="0 0 0 0 1 0 0 0 0 1 0 0 0 0 1 0 0 0 0.2 0"/>
<feBlend mode="normal" in2="effect6_innerShadow_2353_6677" result="effect7_innerShadow_2353_6677"/>
</filter>
<clipPath id="clip0_2353_6677">
<rect width="462" height="387" fill="white"/>
</clipPath>
</defs>
</svg>
