<svg width="114" height="114" viewBox="0 0 114 114" fill="none" xmlns="http://www.w3.org/2000/svg">
<path fill-rule="evenodd" clip-rule="evenodd" d="M69.014 49.3029L70.9145 69.0746L66.5313 69.4871L64.6307 49.7154L69.014 49.3029Z" fill="black"/>
<path fill-rule="evenodd" clip-rule="evenodd" d="M58.2713 62.5506L60.1718 82.3223L55.7885 82.7349L53.888 62.9631L58.2713 62.5506Z" fill="black"/>
<path fill-rule="evenodd" clip-rule="evenodd" d="M33.8513 64.5749L53.8575 62.9747L53.5028 58.632L33.4965 60.2322L33.8513 64.5749Z" fill="black"/>
<path fill-rule="evenodd" clip-rule="evenodd" d="M44.6261 52.1631L64.5554 49.8034L64.0323 45.4775L44.1029 47.8371L44.6261 52.1631Z" fill="black"/>
<path d="M94.4746 95.9443C86.1336 105.286 74.7547 111.448 62.307 113.365C49.8593 115.281 37.1261 112.831 26.3111 106.439C15.496 100.047 7.27954 90.1147 3.08362 78.3611C-1.11229 66.6075 -1.02364 53.7723 3.33424 42.0766L5.54138 42.8818C1.37333 54.0681 1.28854 66.3442 5.30168 77.5858C9.31482 88.8274 17.1734 98.327 27.5173 104.441C37.8613 110.554 50.0398 112.898 61.9453 111.065C73.8508 109.231 84.7341 103.338 92.7118 94.403L94.4746 95.9443Z" fill="black"/>
<path d="M7.17621 38.7824C6.09687 38.2504 5.24986 37.5324 4.63518 36.6283C4.00992 35.7189 3.6621 34.7307 3.59171 33.6636C3.5266 32.5861 3.74967 31.5394 4.26092 30.5238C4.86177 29.3301 5.6772 28.4317 6.7072 27.8285C7.73721 27.2253 8.88937 26.9829 10.1637 27.1013L9.30194 28.8133C8.48243 28.7884 7.74785 28.9752 7.09818 29.3738C6.45379 29.7619 5.9313 30.3538 5.53074 31.1496C5.14598 31.914 4.98065 32.6885 5.03473 33.4731C5.08882 34.2577 5.36222 34.9871 5.85494 35.6612C6.33709 36.3301 7.02259 36.8836 7.91147 37.3217C8.78976 37.7545 9.64919 37.9625 10.4898 37.9455C11.3198 37.9233 12.0675 37.6973 12.733 37.2673C13.3985 36.8373 13.9236 36.2401 14.3084 35.4757C14.7089 34.68 14.8769 33.9133 14.8123 33.1758C14.7424 32.4226 14.4506 31.7298 13.9368 31.0976L14.7985 29.3856C15.6511 30.3155 16.1445 31.3689 16.2785 32.5458C16.4019 33.7174 16.1631 34.9001 15.5623 36.0938C15.051 37.1094 14.3465 37.9188 13.4487 38.5217C12.5455 39.109 11.5442 39.4323 10.4446 39.4915C9.34502 39.5507 8.25556 39.3143 7.17621 38.7824Z" fill="black"/>
<path d="M21.7716 23.1597L18.2293 27.1806L19.6487 29.7084L18.5301 30.9782L12.2032 19.6548L13.4266 18.266L25.6146 22.9363L24.496 24.2061L21.7716 23.1597ZM20.4795 22.6503L14.3062 20.2584L17.5431 25.9835L20.4795 22.6503Z" fill="black"/>
<path d="M27.4396 20.4516L30.9063 17.8898L31.6915 18.9301L26.9319 22.4473L19.5364 12.6483L20.8293 11.6929L27.4396 20.4516Z" fill="black"/>
<path d="M34.7306 15.9997L38.6087 14.1013L39.1906 15.2651L33.8661 17.8716L28.3856 6.90966L29.8319 6.20163L34.7306 15.9997Z" fill="black"/>
<path d="M53.305 0L53.4774 1.2872L50.1374 1.72514L51.5886 12.562L49.9889 12.7717L48.5377 1.93489L45.1801 2.37513L45.0077 1.08793L53.305 0Z" fill="black"/>
<path d="M62.1872 12.971C61.0475 12.8453 60.0372 12.4691 59.1562 11.8423C58.2765 11.2039 57.6135 10.3834 57.1674 9.3808C56.7343 8.36789 56.5845 7.26852 56.7181 6.08268C56.8516 4.89685 57.2416 3.86289 57.8881 2.98079C58.5477 2.08836 59.3769 1.43239 60.3757 1.01287C61.3759 0.581726 62.4458 0.428987 63.5855 0.554652C64.7369 0.681614 65.7524 1.06431 66.6321 1.70274C67.5131 2.32954 68.1708 3.14358 68.6052 4.14487C69.0396 5.14615 69.1894 6.24553 69.0546 7.44298C68.9197 8.64044 68.529 9.68022 67.8825 10.5623C67.236 11.4444 66.4127 12.101 65.4125 12.5322C64.4137 12.9517 63.3386 13.098 62.1872 12.971ZM62.3423 11.5934C63.2 11.6879 63.9918 11.5751 64.7178 11.255C65.4555 10.9362 66.0594 10.4319 66.5296 9.74224C67.0116 9.05386 67.3069 8.2272 67.4156 7.26226C67.5255 6.28569 67.4214 5.41498 67.1031 4.65013C66.7979 3.87496 66.3268 3.25216 65.6898 2.78174C65.0529 2.31132 64.2997 2.02818 63.4303 1.93231C62.5609 1.83644 61.7632 1.94858 61.0372 2.26871C60.3113 2.58885 59.7073 3.09311 59.2254 3.78149C58.7565 4.45953 58.467 5.28684 58.3571 6.26341C58.2484 7.22835 58.3467 8.09841 58.6519 8.87359C58.9689 9.65006 59.4458 10.2735 60.0828 10.7439C60.7314 11.2156 61.4846 11.4988 62.3423 11.5934Z" fill="black"/>
<path d="M77.5528 10.8332C78.1494 9.79626 78.9208 8.99919 79.8671 8.44197C80.8193 7.87458 81.8357 7.58567 82.9164 7.57524C84.0073 7.57059 85.051 7.84896 86.0476 8.41033C87.2188 9.07008 88.0802 9.92548 88.6318 10.9765C89.1833 12.0276 89.3641 13.1793 89.1741 14.4318L87.4943 13.4855C87.5649 12.6773 87.417 11.9412 87.0508 11.2772C86.6949 10.6191 86.1265 10.0701 85.3458 9.63023C84.5958 9.20776 83.8234 9.00151 83.0287 9.01148C82.234 9.02146 81.4829 9.25118 80.7754 9.70065C80.0737 10.14 79.4773 10.7866 78.986 11.6405C78.5005 12.4843 78.2431 13.3219 78.2137 14.1533C78.1901 14.9746 78.3768 15.7259 78.7738 16.4072C79.1708 17.0885 79.7443 17.6403 80.4943 18.0628C81.2751 18.5027 82.0394 18.7111 82.7872 18.6881C83.5511 18.6608 84.2662 18.4108 84.9326 17.9382L86.6124 18.8844C85.6268 19.6753 84.5366 20.1043 83.3417 20.1715C82.1526 20.2286 80.9724 19.9272 79.8012 19.2675C78.8047 18.7061 78.0271 17.9652 77.4684 17.0447C76.9258 16.1199 76.6551 15.1127 76.6562 14.023C76.6574 12.9334 76.9562 11.8701 77.5528 10.8332Z" fill="black"/>
<path d="M100.163 20.1285L91.9429 22.9022L88.7291 26.2464L87.5597 25.1461L90.7735 21.8019L93.147 13.5266L94.4448 14.7478L92.3416 21.3161L98.8653 18.9073L100.163 20.1285Z" fill="black"/>
<path d="M104.128 32.2304C103.275 32.7984 102.366 32.9806 101.401 32.7768C100.452 32.5763 99.5757 31.8839 98.7707 30.6997L97.4446 28.7487L93.1628 31.5985L92.2622 30.2735L102.518 23.4479L104.745 26.7238C105.523 27.8692 105.834 28.924 105.677 29.8882C105.527 30.8621 105.011 31.6429 104.128 32.2304ZM99.8743 29.9653C100.376 30.703 100.907 31.1388 101.468 31.2728C102.03 31.4068 102.609 31.2746 103.208 30.8764C104.473 30.0342 104.618 28.8948 103.641 27.4583L102.315 25.5073L98.5481 28.0143L99.8743 29.9653Z" fill="black"/>
<path d="M112.332 43.2336L100.745 47.4898L100.184 45.9929L105.437 44.0632L103.246 38.2236L97.9928 40.1532L97.4313 38.6563L109.018 34.4001L109.58 35.897L104.493 37.7656L106.684 43.6053L111.771 41.7367L112.332 43.2336Z" fill="black"/>
<path d="M112.053 50.0286L107.954 50.5378L108.515 54.9599L107.195 55.1238L106.634 50.7017L102.411 51.2261L103.039 56.1706L101.719 56.3345L100.891 49.8057L113.172 48.2804L114 54.8091L112.68 54.973L112.053 50.0286Z" fill="black"/>
<path d="M101.007 65.483L106.313 63.0503L106.496 61.1286L101.464 60.6613L101.615 59.0716L113.92 60.2144L113.547 64.1451C113.46 65.0652 113.228 65.8249 112.85 66.4243C112.472 67.0354 111.997 67.473 111.426 67.7372C110.854 68.0013 110.222 68.1012 109.527 68.0367C108.68 67.958 107.955 67.644 107.355 67.0947C106.752 66.5571 106.391 65.7951 106.271 64.8088L100.826 67.3872L101.007 65.483ZM107.784 61.2483L107.562 63.5893C107.481 64.4511 107.631 65.1172 108.014 65.5874C108.409 66.0588 108.965 66.3278 109.683 66.3945C110.413 66.4623 110.998 66.2993 111.439 65.9055C111.879 65.5234 112.14 64.8956 112.223 64.0221L112.445 61.6812L107.784 61.2483Z" fill="black"/>
<path d="M98.1874 74.4968C98.579 73.4303 99.1862 72.5471 100.009 71.8472C100.843 71.1514 101.805 70.7068 102.895 70.5135C103.992 70.3353 105.107 70.4499 106.24 70.8572C107.373 71.2646 108.297 71.8829 109.012 72.7122C109.733 73.5565 110.182 74.5083 110.359 75.5676C110.548 76.6309 110.446 77.6958 110.054 78.7623C109.659 79.8398 109.044 80.7264 108.21 81.4223C107.387 82.1222 106.433 82.5632 105.347 82.7455C104.261 82.9277 103.146 82.8132 102.002 82.4018C100.857 81.9904 99.928 81.3701 99.2137 80.5408C98.4993 79.7116 98.048 78.7653 97.8598 77.702C97.6827 76.6427 97.7919 75.5743 98.1874 74.4968ZM99.5042 74.97C99.2095 75.7727 99.134 76.5607 99.2777 77.3342C99.4174 78.1187 99.7706 78.8182 100.337 79.4326C100.9 80.0581 101.643 80.5365 102.565 80.868C103.498 81.2035 104.378 81.3082 105.204 81.182C106.037 81.0707 106.76 80.7642 107.372 80.2623C107.984 79.7604 108.439 79.1026 108.738 78.289C109.036 77.4754 109.114 76.6818 108.97 75.9083C108.827 75.1348 108.473 74.4354 107.911 73.8099C107.355 73.1995 106.61 72.7265 105.677 72.391C104.755 72.0595 103.877 71.9494 103.044 72.0606C102.206 72.1828 101.482 72.4949 100.87 72.9968C100.254 73.5097 99.7988 74.1674 99.5042 74.97Z" fill="black"/>
<path d="M97.3445 88.6414L90.1099 88.2691L91.1461 86.7809L96.7981 87.0756L94.4259 82.0704L95.4421 80.6111L98.3808 87.1531L105.63 87.5353L104.604 89.0092L98.9271 88.7189L101.304 93.7485L100.278 95.2223L97.3445 88.6414Z" fill="black"/>
</svg>
