<svg width="348" height="337" viewBox="0 0 348 337" fill="none" xmlns="http://www.w3.org/2000/svg">
<path d="M9.25923 44.001H186.413C192.001 44.001 196.934 48.5368 197.433 54.1326L218.778 294.266C219.275 299.862 215.148 304.398 209.559 304.398H32.4057C26.8172 304.398 21.8846 299.862 21.3857 294.266L0.0405612 54.1326C-0.456397 48.5368 3.67076 44.001 9.25923 44.001Z" fill="black"/>
<path d="M14.5191 44.001H191.673C197.261 44.001 202.194 48.5368 202.693 54.1326L224.038 294.266C224.535 299.862 220.408 304.398 214.819 304.398H37.6674C32.0789 304.398 27.1463 299.862 26.6475 294.266L5.30228 54.1326C4.80532 48.5368 8.93248 44.001 14.5209 44.001H14.5191Z" fill="white"/>
<path d="M214.822 304.818H37.6689C31.879 304.818 26.7487 300.101 26.2314 294.303L4.88626 54.1696C4.63501 51.3375 5.50331 48.6737 7.33411 46.6703C9.15382 44.678 11.707 43.5811 14.5206 43.5811H191.674C197.464 43.5811 202.594 48.2982 203.11 54.0956L224.455 294.229C224.706 297.061 223.838 299.725 222.007 301.728C220.187 303.721 217.634 304.818 214.821 304.818H214.822ZM14.5224 44.4209C11.9471 44.4209 9.61383 45.4217 7.95299 47.2382C6.28292 49.0659 5.49037 51.5021 5.7213 54.0975L27.0665 294.231C27.545 299.607 32.3003 303.982 37.6689 303.982H214.822C217.398 303.982 219.731 302.981 221.392 301.164C223.062 299.337 223.855 296.9 223.624 294.307L202.278 54.1733C201.8 48.7976 197.045 44.4227 191.676 44.4227H14.5224V44.4209Z" fill="black"/>
<path d="M48.3565 278.411H203.051L183.644 60.0801H28.9492L48.3565 278.411Z" fill="white"/>
<path d="M203.052 278.829H48.3578C48.1416 278.829 47.9606 278.663 47.9403 278.446L28.533 60.1171C28.522 60.0005 28.5626 59.884 28.642 59.797C28.7215 59.7101 28.8342 59.6602 28.9506 59.6602H183.645C183.861 59.6602 184.042 59.8266 184.062 60.0431L203.47 278.374C203.481 278.491 203.44 278.607 203.361 278.694C203.281 278.781 203.169 278.831 203.052 278.831V278.829ZM48.7421 277.991H202.594L183.261 60.5H29.4087L48.7421 277.991Z" fill="black"/>
<path d="M165.807 98.0829H53.4706C53.2544 98.0829 53.0734 97.9164 53.0531 97.7L52.1737 87.8143C52.1626 87.6978 52.2032 87.5813 52.2827 87.4943C52.3621 87.4074 52.4748 87.3574 52.5912 87.3574H164.93C165.146 87.3574 165.327 87.5239 165.347 87.7403L166.226 97.626C166.238 97.7425 166.197 97.859 166.119 97.946C166.04 98.0329 165.927 98.0829 165.811 98.0829H165.807ZM53.853 97.243H165.351L164.547 88.1954H53.0494L53.853 97.243Z" fill="black"/>
<path d="M102.783 156.051H52.6897C52.4735 156.051 52.2925 155.885 52.2721 155.668L47.8143 105.51C47.8032 105.393 47.8439 105.277 47.9233 105.19C48.0027 105.103 48.1154 105.053 48.2318 105.053H98.3248C98.541 105.053 98.722 105.219 98.7424 105.436L103.2 155.594C103.211 155.711 103.171 155.828 103.091 155.915C103.012 156.001 102.899 156.051 102.783 156.051ZM53.0739 155.213H102.326L97.9424 105.894H48.69L53.0739 155.213Z" fill="black"/>
<path d="M176.815 113.053H112.266C112.05 113.053 111.869 112.887 111.848 112.671L111.213 105.512C111.202 105.395 111.242 105.279 111.322 105.192C111.401 105.105 111.514 105.055 111.63 105.055H176.179C176.396 105.055 176.577 105.221 176.597 105.438L177.232 112.597C177.244 112.713 177.203 112.83 177.123 112.917C177.044 113.004 176.931 113.053 176.815 113.053ZM112.648 112.215H176.357L175.795 105.896H112.087L112.648 112.215Z" fill="black"/>
<path d="M177.831 124.522H113.281C113.065 124.522 112.884 124.356 112.864 124.139L112.228 116.98C112.217 116.864 112.258 116.747 112.337 116.66C112.417 116.573 112.529 116.523 112.646 116.523H177.195C177.411 116.523 177.592 116.69 177.613 116.906L178.248 124.065C178.259 124.182 178.218 124.298 178.139 124.385C178.06 124.472 177.947 124.522 177.831 124.522ZM113.666 123.682H177.374L176.813 117.363H113.104L113.666 123.682Z" fill="black"/>
<path d="M178.854 135.99H114.305C114.089 135.99 113.908 135.823 113.887 135.607L113.252 128.448C113.241 128.332 113.281 128.215 113.361 128.128C113.44 128.041 113.553 127.991 113.669 127.991H178.218C178.435 127.991 178.616 128.158 178.636 128.374L179.271 135.533C179.283 135.65 179.242 135.766 179.162 135.853C179.083 135.94 178.97 135.99 178.854 135.99ZM114.689 135.152H178.398L177.836 128.833H114.127L114.689 135.152Z" fill="black"/>
<path d="M179.627 148.071H115.078C114.862 148.071 114.681 147.905 114.661 147.688L114.025 140.529C114.014 140.413 114.055 140.296 114.134 140.209C114.214 140.122 114.326 140.072 114.443 140.072H178.992C179.208 140.072 179.389 140.239 179.409 140.455L180.045 147.614C180.056 147.731 180.015 147.847 179.936 147.934C179.856 148.021 179.744 148.071 179.627 148.071ZM115.461 147.231H179.169L178.608 140.912H114.899L115.461 147.231Z" fill="black"/>
<path d="M180.131 160.665H115.582C115.366 160.665 115.185 160.498 115.165 160.282L114.529 153.123C114.518 153.006 114.559 152.89 114.638 152.803C114.718 152.716 114.83 152.666 114.947 152.666H179.496C179.712 152.666 179.893 152.832 179.913 153.049L180.549 160.208C180.56 160.324 180.519 160.441 180.44 160.528C180.36 160.615 180.248 160.665 180.131 160.665ZM115.965 159.827H179.673L179.112 153.508H115.403L115.965 159.827Z" fill="black"/>
<path d="M178.69 193.312H121.01C120.794 193.312 120.612 193.146 120.592 192.929L120.26 189.182C120.249 189.065 120.289 188.948 120.367 188.862C120.446 188.775 120.559 188.725 120.675 188.725H178.356C178.572 188.725 178.753 188.891 178.773 189.108L179.106 192.855C179.117 192.972 179.076 193.088 178.999 193.175C178.919 193.262 178.806 193.312 178.69 193.312ZM121.392 192.474H178.232L177.973 189.564H121.133L121.392 192.474Z" fill="black"/>
<path d="M179.221 199.317H121.541C121.325 199.317 121.144 199.151 121.123 198.934L120.791 195.186C120.78 195.07 120.82 194.953 120.898 194.866C120.977 194.779 121.09 194.729 121.207 194.729H178.887C179.103 194.729 179.284 194.896 179.304 195.112L179.637 198.86C179.648 198.977 179.607 199.093 179.53 199.18C179.45 199.267 179.338 199.317 179.221 199.317ZM121.925 198.479H178.765L178.506 195.569H121.667L121.925 198.479Z" fill="black"/>
<path d="M179.756 205.322H122.076C121.86 205.322 121.679 205.156 121.659 204.939L121.326 201.191C121.315 201.075 121.356 200.958 121.433 200.871C121.513 200.784 121.625 200.734 121.742 200.734H179.422C179.638 200.734 179.819 200.901 179.84 201.117L180.172 204.865C180.183 204.982 180.143 205.098 180.063 205.185C179.984 205.272 179.871 205.322 179.755 205.322H179.756ZM122.46 204.484H179.3L179.042 201.574H122.202L122.46 204.484Z" fill="black"/>
<path d="M181.128 220.708H123.447C123.231 220.708 123.05 220.541 123.03 220.325L122.697 216.577C122.686 216.46 122.727 216.344 122.804 216.257C122.884 216.17 122.996 216.12 123.113 216.12H180.793C181.009 216.12 181.19 216.287 181.211 216.503L181.543 220.251C181.554 220.367 181.514 220.484 181.436 220.571C181.357 220.658 181.244 220.708 181.128 220.708ZM123.83 219.87H180.669L180.411 216.96H123.571L123.83 219.87Z" fill="black"/>
<path d="M181.659 226.712H123.978C123.762 226.712 123.581 226.545 123.561 226.329L123.228 222.581C123.217 222.464 123.258 222.348 123.336 222.261C123.415 222.174 123.528 222.124 123.644 222.124H181.324C181.541 222.124 181.722 222.291 181.742 222.507L182.074 226.255C182.086 226.371 182.045 226.488 181.967 226.575C181.888 226.662 181.775 226.712 181.659 226.712ZM124.363 225.874H181.203L180.944 222.964H124.104L124.363 225.874Z" fill="black"/>
<path d="M182.194 232.717H124.514C124.297 232.717 124.116 232.55 124.096 232.334L123.764 228.586C123.752 228.469 123.793 228.353 123.871 228.266C123.95 228.179 124.063 228.129 124.179 228.129H181.86C182.076 228.129 182.257 228.295 182.277 228.512L182.61 232.26C182.621 232.376 182.58 232.493 182.501 232.58C182.421 232.667 182.309 232.717 182.192 232.717H182.194ZM124.898 231.879H181.738L181.479 228.969H124.639L124.898 231.879Z" fill="black"/>
<path d="M183.557 248.102H125.877C125.661 248.102 125.48 247.936 125.459 247.719L125.127 243.972C125.116 243.855 125.156 243.738 125.236 243.652C125.315 243.565 125.428 243.515 125.544 243.515H183.225C183.441 243.515 183.622 243.681 183.642 243.898L183.975 247.645C183.986 247.762 183.945 247.878 183.868 247.965C183.788 248.052 183.675 248.102 183.559 248.102H183.557ZM126.259 247.264H183.099L182.84 244.354H126.001L126.259 247.264Z" fill="black"/>
<path d="M184.092 254.107H126.412C126.196 254.107 126.015 253.941 125.995 253.724L125.662 249.976C125.651 249.86 125.692 249.743 125.769 249.656C125.849 249.569 125.961 249.52 126.078 249.52H183.758C183.974 249.52 184.155 249.686 184.176 249.902L184.508 253.65C184.519 253.767 184.479 253.883 184.401 253.97C184.321 254.057 184.209 254.107 184.092 254.107ZM126.794 253.269H183.634L183.376 250.359H126.536L126.794 253.269Z" fill="black"/>
<path d="M184.624 260.114H126.943C126.727 260.114 126.546 259.948 126.526 259.731L126.193 255.983C126.182 255.867 126.223 255.75 126.3 255.663C126.38 255.576 126.492 255.526 126.609 255.526H184.289C184.505 255.526 184.686 255.693 184.707 255.909L185.039 259.657C185.05 259.774 185.01 259.89 184.932 259.977C184.853 260.064 184.74 260.114 184.624 260.114ZM127.326 259.274H184.166L183.907 256.364H127.067L127.326 259.274Z" fill="black"/>
<path d="M115.159 193.312H57.4784C57.2623 193.312 57.0812 193.146 57.0609 192.929L56.7284 189.182C56.7173 189.065 56.7579 188.948 56.8355 188.862C56.915 188.775 57.0276 188.725 57.144 188.725H114.824C115.041 188.725 115.222 188.891 115.242 189.108L115.574 192.855C115.586 192.972 115.545 193.088 115.467 193.175C115.388 193.262 115.275 193.312 115.159 193.312ZM57.8608 192.472H114.701L114.442 189.563H57.6022L57.8608 192.472Z" fill="black"/>
<path d="M115.69 199.317H58.0097C57.7935 199.317 57.6125 199.151 57.5922 198.934L57.2596 195.186C57.2485 195.07 57.2892 194.953 57.3686 194.866C57.448 194.779 57.5607 194.729 57.6771 194.729H115.358C115.574 194.729 115.755 194.896 115.775 195.112L116.108 198.86C116.119 198.977 116.078 199.093 116 199.18C115.921 199.267 115.808 199.317 115.692 199.317H115.69ZM58.3939 198.477H115.234L114.975 195.567H58.1353L58.3939 198.477Z" fill="black"/>
<path d="M116.225 205.322H58.5448C58.3287 205.322 58.1476 205.156 58.1273 204.939L57.7948 201.191C57.7837 201.075 57.8243 200.958 57.9019 200.871C57.9814 200.784 58.0941 200.734 58.2104 200.734H115.891C116.107 200.734 116.288 200.901 116.308 201.117L116.641 204.865C116.652 204.982 116.611 205.098 116.532 205.185C116.452 205.272 116.34 205.322 116.223 205.322H116.225ZM58.9291 204.482H115.769L115.51 201.572H58.6704L58.9291 204.482Z" fill="black"/>
<path d="M117.596 220.708H59.9159C59.6998 220.708 59.5187 220.541 59.4984 220.325L59.1659 216.577C59.1548 216.46 59.1954 216.344 59.273 216.257C59.3525 216.17 59.4651 216.12 59.5815 216.12H117.262C117.478 216.12 117.659 216.287 117.679 216.503L118.012 220.251C118.023 220.367 117.982 220.484 117.905 220.571C117.825 220.658 117.713 220.708 117.596 220.708ZM60.2983 219.87H117.138L116.88 216.96H60.0397L60.2983 219.87Z" fill="black"/>
<path d="M118.131 226.712H60.4511C60.2349 226.712 60.0539 226.545 60.0336 226.329L59.701 222.581C59.6899 222.464 59.7306 222.348 59.8082 222.261C59.8876 222.174 60.0003 222.124 60.1167 222.124H117.797C118.013 222.124 118.194 222.291 118.215 222.507L118.547 226.255C118.558 226.371 118.518 226.488 118.44 226.575C118.361 226.662 118.248 226.712 118.131 226.712ZM60.8335 225.874H117.673L117.415 222.964H60.5749L60.8335 225.874Z" fill="black"/>
<path d="M118.663 232.717H60.9823C60.7662 232.717 60.5851 232.55 60.5648 232.334L60.2323 228.586C60.2212 228.469 60.2618 228.353 60.3394 228.266C60.4189 228.179 60.5316 228.129 60.6479 228.129H118.328C118.544 228.129 118.726 228.295 118.746 228.512L119.078 232.26C119.089 232.376 119.049 232.493 118.969 232.58C118.89 232.667 118.777 232.717 118.661 232.717H118.663ZM61.3666 231.879H118.206L117.948 228.969H61.1079L61.3666 231.879Z" fill="black"/>
<path d="M120.026 248.102H62.3456C62.1295 248.102 61.9484 247.936 61.9281 247.719L61.5955 243.972C61.5845 243.855 61.6251 243.738 61.7045 243.652C61.784 243.565 61.8967 243.515 62.0131 243.515H119.693C119.91 243.515 120.091 243.681 120.111 243.898L120.444 247.645C120.455 247.762 120.414 247.878 120.336 247.965C120.257 248.052 120.144 248.102 120.028 248.102H120.026ZM62.728 247.264H119.568L119.309 244.354H62.4694L62.728 247.264Z" fill="black"/>
<path d="M120.557 254.107H62.8769C62.6607 254.107 62.4797 253.941 62.4593 253.724L62.1268 249.976C62.1157 249.86 62.1564 249.743 62.234 249.656C62.3134 249.569 62.4261 249.52 62.5425 249.52H120.223C120.439 249.52 120.62 249.686 120.64 249.902L120.973 253.65C120.984 253.767 120.943 253.883 120.866 253.97C120.786 254.057 120.674 254.107 120.557 254.107ZM63.2593 253.269H120.099L119.84 250.359H63.0006L63.2593 253.269Z" fill="black"/>
<path d="M121.092 260.112H63.412C63.1959 260.112 63.0148 259.946 62.9945 259.729L62.662 255.981C62.6509 255.865 62.6915 255.748 62.7691 255.661C62.8485 255.574 62.9612 255.524 63.0776 255.524H120.758C120.974 255.524 121.155 255.691 121.176 255.907L121.508 259.655C121.519 259.772 121.479 259.888 121.401 259.975C121.321 260.062 121.209 260.112 121.092 260.112ZM63.7944 259.274H120.634L120.376 256.364H63.5358L63.7944 259.274Z" fill="black"/>
<path d="M145.244 182.894H87.5636C87.3382 182.894 87.1535 182.714 87.1461 182.489L86.9299 175.929C86.9262 175.816 86.9687 175.705 87.0481 175.624C87.1276 175.542 87.2366 175.496 87.3493 175.496H145.03C145.255 175.496 145.44 175.676 145.447 175.901L145.663 182.461C145.667 182.574 145.625 182.685 145.545 182.766C145.466 182.847 145.357 182.894 145.244 182.894ZM87.9682 182.056H144.81L144.621 176.334H87.7797L87.9682 182.056Z" fill="black"/>
<path d="M52.7719 72.7738H154.499C158.264 72.7738 161.044 69.7178 160.708 65.9478L159.575 53.2005C158.812 44.6153 151.244 37.6543 142.668 37.6543H58.3586C49.7846 37.6543 43.4517 44.6135 44.2146 53.2005L45.3471 65.9478C45.6815 69.7178 49.005 72.7738 52.7701 72.7738H52.7719Z" fill="black"/>
<path d="M79.8811 19.4605L82.521 49.1507C82.8185 52.4989 85.7707 55.2127 89.1145 55.2127H115.036C118.38 55.2127 120.85 52.4989 120.552 49.1507L117.912 19.4605C116.977 8.94406 107.707 0.419922 97.2044 0.419922C86.7018 0.419922 78.9463 8.94406 79.8811 19.4605ZM92.6043 15.228C92.3142 11.9556 94.727 9.30478 97.9932 9.30478C101.259 9.30478 104.145 11.9575 104.435 15.228C104.725 18.5004 102.313 21.1513 99.0463 21.1513C95.78 21.1513 92.8943 18.4986 92.6043 15.228Z" fill="black"/>
<path d="M54.7993 72.7738H156.526C160.291 72.7738 163.072 69.7178 162.735 65.9478L161.603 53.2005C160.84 44.6153 153.271 37.6543 144.695 37.6543H60.3859C51.812 37.6543 45.479 44.6135 46.242 53.2005L47.3745 65.9478C47.7089 69.7178 51.0324 72.7738 54.7974 72.7738H54.7993Z" fill="white"/>
<path d="M156.524 73.1939H54.7971C50.827 73.1939 47.3095 69.9604 46.9566 65.9869L45.8223 53.2395C45.4417 48.9571 46.7552 44.9318 49.5208 41.9055C52.2716 38.8958 56.1291 37.2383 60.3837 37.2383H144.693C153.465 37.2383 161.237 44.3843 162.016 53.1655L163.149 65.9129C163.322 67.8608 162.724 69.6903 161.464 71.0684C160.211 72.4392 158.456 73.1939 156.522 73.1939H156.524ZM60.3837 38.0744C56.3674 38.0744 52.728 39.6357 50.1397 42.4697C47.5348 45.3203 46.2989 49.1181 46.6573 53.1637L47.7916 65.911C48.1075 69.4646 51.25 72.3541 54.7971 72.3541H156.524C158.22 72.3541 159.757 71.6955 160.849 70.5005C161.948 69.2981 162.469 67.6943 162.317 65.985L161.185 53.2377C160.442 44.8763 153.043 38.0744 144.695 38.0744H60.3856H60.3837Z" fill="black"/>
<path d="M81.9045 19.4605L84.5445 49.1507C84.8419 52.4989 87.7941 55.2127 91.1379 55.2127H117.059C120.403 55.2127 122.873 52.4989 122.576 49.1507L119.936 19.4605C119.001 8.94406 109.73 0.419922 99.2278 0.419922C88.7252 0.419922 80.9697 8.94406 81.9045 19.4605ZM94.6277 15.228C94.3377 11.9556 96.7504 9.30478 100.017 9.30478C103.283 9.30478 106.169 11.9575 106.459 15.228C106.749 18.5004 104.336 21.1513 101.07 21.1513C97.8035 21.1513 94.9178 18.4986 94.6277 15.228Z" fill="white"/>
<path d="M117.061 55.6326H91.1397C87.5889 55.6326 84.4446 52.7412 84.1287 49.1877L81.4887 19.4975C81.025 14.279 82.6249 9.37322 85.9946 5.68646C89.3458 2.02004 94.0457 0 99.2296 0C109.926 0 119.403 8.71282 120.355 19.4235L122.995 49.1137C123.15 50.8562 122.614 52.4952 121.487 53.7291C120.366 54.9574 118.794 55.6326 117.063 55.6326H117.061ZM99.2296 0.837985C94.284 0.837985 89.8022 2.75998 86.6116 6.25251C83.4027 9.76354 81.8804 14.4418 82.3238 19.4235L84.9637 49.1137C85.2427 52.2455 88.0138 54.7946 91.1397 54.7946H117.061C118.556 54.7946 119.906 54.2156 120.869 53.163C121.835 52.1049 122.295 50.6934 122.16 49.1877L119.52 19.4975C118.605 9.20858 109.503 0.839835 99.2296 0.839835V0.837985ZM101.071 21.5712C97.5983 21.5712 94.5205 18.7427 94.212 15.265C94.0605 13.5594 94.5851 11.9556 95.6881 10.7477C96.7854 9.54711 98.3243 8.88486 100.018 8.88486C103.492 8.88486 106.569 11.7133 106.878 15.191C107.029 16.8966 106.505 18.5004 105.402 19.7084C104.304 20.9089 102.766 21.5712 101.071 21.5712ZM100.018 9.72469C98.5608 9.72469 97.2436 10.2889 96.3051 11.3156C95.3629 12.3478 94.914 13.7241 95.0452 15.1929C95.3167 18.2488 98.0195 20.735 101.071 20.735C102.527 20.735 103.846 20.1708 104.783 19.1442C105.725 18.1119 106.174 16.7356 106.043 15.2669C105.771 12.2109 103.069 9.72469 100.017 9.72469H100.018Z" fill="black"/>
<path d="M283.384 60.8809C283.153 60.8809 282.965 60.6941 282.965 60.461V57.209C282.965 56.9777 283.151 56.7891 283.384 56.7891C283.617 56.7891 283.804 56.9759 283.804 57.209V60.461C283.804 60.6923 283.617 60.8809 283.384 60.8809Z" fill="black"/>
<path d="M283.384 68.4581C283.153 68.4581 282.965 68.2713 282.965 68.0382V64.7861C282.965 64.5549 283.151 64.3662 283.384 64.3662C283.617 64.3662 283.804 64.553 283.804 64.7861V68.0382C283.804 68.2694 283.617 68.4581 283.384 68.4581Z" fill="black"/>
<path d="M281.226 63.0439H277.978C277.747 63.0439 277.559 62.8571 277.559 62.624C277.559 62.3909 277.745 62.2041 277.978 62.2041H281.226C281.457 62.2041 281.645 62.3909 281.645 62.624C281.645 62.8571 281.459 63.0439 281.226 63.0439Z" fill="black"/>
<path d="M288.792 63.0439H285.544C285.313 63.0439 285.125 62.8571 285.125 62.624C285.125 62.3909 285.312 62.2041 285.544 62.2041H288.792C289.023 62.2041 289.212 62.3909 289.212 62.624C289.212 62.8571 289.025 63.0439 288.792 63.0439Z" fill="black"/>
<path d="M272.806 51.1148C272.418 51.1148 272.03 51.0426 271.659 50.8983C270.849 50.5839 270.212 49.9642 269.865 49.1558C269.154 47.5057 269.891 45.5726 271.509 44.8456C272.289 44.496 273.155 44.4719 273.951 44.7827C274.76 45.0972 275.398 45.7169 275.747 46.5253C276.458 48.1753 275.721 50.1084 274.103 50.8354C273.689 51.0223 273.247 51.1148 272.808 51.1166L272.806 51.1148ZM272.804 45.4043C272.479 45.4043 272.156 45.4727 271.851 45.6096C270.648 46.1497 270.103 47.5908 270.633 48.8228C270.892 49.424 271.365 49.8828 271.962 50.1158C272.547 50.3434 273.185 50.3267 273.759 50.0696C274.962 49.5294 275.507 48.0884 274.977 46.8564C274.718 46.2552 274.245 45.7964 273.646 45.5633C273.373 45.4561 273.089 45.4043 272.804 45.4043Z" fill="black"/>
<path d="M120.238 288.689C119.996 289.067 110.773 302.273 110.773 302.273C110.773 302.273 111.006 305.638 113.397 306.293L124.365 294.407L120.238 288.689Z" fill="white"/>
<path d="M113.394 306.712C113.357 306.712 113.32 306.706 113.283 306.697C110.637 305.972 110.364 302.452 110.353 302.302C110.345 302.206 110.373 302.111 110.428 302.032C113.617 297.466 119.697 288.755 119.884 288.463C119.959 288.347 120.087 288.275 120.224 288.271C120.377 288.265 120.493 288.332 120.575 288.445L124.702 294.163C124.818 294.324 124.805 294.546 124.67 294.694L113.702 306.579C113.621 306.666 113.51 306.714 113.395 306.714L113.394 306.712ZM111.204 302.385C111.276 302.968 111.657 305.18 113.27 305.811L123.822 294.377L120.244 289.42C118.65 291.725 112.1 301.101 111.203 302.387L111.204 302.385Z" fill="black"/>
<path d="M105.746 304.594C105.746 304.594 106.531 315.02 111.13 320.509C115.728 325.997 123.108 324.242 123.108 324.242C123.108 324.242 123.668 319.6 122.711 318.392C121.754 317.186 116.461 310.736 116.476 304.937L113.664 301.104L112.005 303.255L111.296 299.742L105.746 304.594Z" fill="white"/>
<path d="M120.388 324.915C117.725 324.915 113.715 324.245 110.811 320.777C106.179 315.25 105.362 305.057 105.329 304.626C105.32 304.494 105.372 304.365 105.471 304.278L111.021 299.426C111.134 299.328 111.289 299.296 111.431 299.344C111.572 299.393 111.677 299.513 111.707 299.659L112.235 302.273L113.334 300.848C113.414 300.745 113.53 300.682 113.67 300.686C113.801 300.686 113.925 300.75 114.003 300.858L116.815 304.691C116.868 304.763 116.896 304.85 116.896 304.94C116.89 307.436 117.932 311.727 122.935 318.004L123.039 318.133C124.075 319.439 123.584 323.8 123.524 324.293C123.502 324.467 123.377 324.61 123.205 324.65C123.175 324.658 122.041 324.915 120.388 324.915ZM106.181 304.768C106.323 306.254 107.345 315.338 111.45 320.237C115.329 324.869 121.35 324.129 122.725 323.888C122.907 322.129 122.963 319.388 122.381 318.653L122.279 318.524C117.214 312.17 116.089 307.722 116.057 305.075L113.656 301.801L112.336 303.512C112.237 303.642 112.07 303.701 111.91 303.664C111.749 303.627 111.627 303.499 111.594 303.338L111.027 300.532L106.181 304.768Z" fill="black"/>
<path d="M107.602 304.995C107.602 304.995 108.793 322.317 121.633 321.943L107.602 304.995Z" fill="white"/>
<path d="M121.229 322.371C108.526 322.371 107.197 305.2 107.184 305.025C107.17 304.793 107.343 304.594 107.572 304.577C107.8 304.562 108.003 304.736 108.02 304.966C108.031 305.136 109.337 321.884 121.622 321.525C121.853 321.52 122.045 321.701 122.053 321.932C122.06 322.164 121.877 322.358 121.646 322.363C121.506 322.367 121.365 322.369 121.229 322.369V322.371Z" fill="black"/>
<path d="M124.887 300.023C124.833 300.589 125.417 308.503 127.868 313.472C127.868 313.472 126.736 317.118 123.27 316.463C123.27 316.463 117.946 306.313 116.828 299.74L124.887 300.021V300.023Z" fill="white"/>
<path d="M124.087 316.963C123.806 316.963 123.511 316.935 123.197 316.876C123.071 316.852 122.964 316.772 122.903 316.659C122.685 316.243 117.534 306.374 116.42 299.813C116.398 299.689 116.435 299.561 116.518 299.467C116.601 299.372 116.723 299.322 116.849 299.324L124.907 299.605C125.022 299.609 125.129 299.663 125.207 299.748C125.282 299.833 125.321 299.95 125.31 300.064C125.275 300.469 125.794 308.311 128.249 313.289C128.297 313.385 128.307 313.496 128.273 313.6C128.262 313.637 127.189 316.966 124.089 316.966L124.087 316.963ZM123.548 316.084C126.127 316.447 127.18 314.129 127.418 313.498C125.271 309.023 124.553 302.299 124.475 300.427L117.339 300.177C118.51 306.121 122.849 314.719 123.55 316.082L123.548 316.084Z" fill="black"/>
<path d="M121.339 312.667C121.339 312.667 120.456 323.048 121.759 325.988C121.759 325.988 131.626 331.069 143.078 331.055C143.891 331.055 144.558 330.394 144.55 329.58C144.534 327.618 144.018 324.033 140.885 321.193C136.329 317.066 126.551 310.288 126.551 310.288L124.578 312.68L125.406 316.463L121.339 312.667Z" fill="white"/>
<path d="M143.035 331.476C131.631 331.476 121.669 326.413 121.57 326.361C121.485 326.317 121.416 326.247 121.377 326.158C120.047 323.154 120.888 313.059 120.923 312.63C120.936 312.471 121.039 312.332 121.189 312.275C121.339 312.217 121.507 312.249 121.625 312.36L124.71 315.24L124.171 312.77C124.143 312.645 124.174 312.513 124.256 312.413L126.229 310.022C126.367 309.853 126.611 309.82 126.79 309.944C126.888 310.012 136.643 316.785 141.167 320.882C144.437 323.845 144.954 327.601 144.971 329.576C144.975 330.078 144.783 330.551 144.428 330.91C144.069 331.273 143.591 331.472 143.079 331.474H143.033L143.035 331.476ZM122.087 325.682C123.304 326.28 132.554 330.636 143.035 330.636C143.334 330.636 143.622 330.535 143.835 330.322C144.031 330.124 144.138 329.861 144.136 329.586C144.121 327.747 143.641 324.254 140.607 321.505C136.582 317.859 128.346 312.053 126.632 310.854L125.034 312.791L125.817 316.374C125.856 316.553 125.774 316.736 125.615 316.827C125.457 316.918 125.257 316.896 125.122 316.77L121.693 313.57C121.522 316.061 121.128 323.22 122.087 325.682Z" fill="black"/>
<path d="M122.527 322.919C122.527 322.919 131.91 328.851 143.137 328.174L122.527 322.919Z" fill="white"/>
<path d="M141.357 328.646C130.928 328.646 122.395 323.33 122.304 323.274C122.109 323.15 122.051 322.891 122.173 322.695C122.297 322.499 122.556 322.442 122.752 322.564C122.844 322.623 132.164 328.417 143.112 327.755C143.341 327.742 143.541 327.918 143.555 328.149C143.57 328.38 143.393 328.578 143.164 328.593C142.558 328.63 141.954 328.646 141.359 328.646H141.357Z" fill="black"/>
<path d="M151.79 249.545C151.736 228.486 140.883 196.509 140.883 196.509L136.452 197.22L136.667 195.259L107.581 196.507C107.581 196.507 100.708 242.658 116.827 303.666L126.55 302.269C126.55 302.269 126.268 299.389 125.99 294.62C134.054 286.211 151.832 265.825 151.792 249.541L151.79 249.545ZM128.987 265.851C128.387 270.359 127.056 274.527 125.468 278.184C125.407 266.98 125.953 253.402 128.13 240.922C129.205 249.473 129.901 258.992 128.987 265.853V265.851Z" fill="white"/>
<path d="M116.827 304.087C116.64 304.087 116.472 303.961 116.422 303.775C100.464 243.38 107.098 196.908 107.167 196.446C107.196 196.248 107.363 196.098 107.562 196.089L136.648 194.84C136.768 194.835 136.888 194.883 136.971 194.973C137.054 195.062 137.095 195.184 137.082 195.306L136.927 196.72L140.816 196.096C141.017 196.065 141.213 196.181 141.28 196.376C141.389 196.696 152.157 228.659 152.209 249.544C152.251 265.971 134.293 286.552 126.419 294.782C126.689 299.379 126.964 302.204 126.967 302.232C126.99 302.456 126.833 302.655 126.611 302.689L116.888 304.085C116.868 304.089 116.847 304.089 116.829 304.089L116.827 304.087ZM107.948 196.914C107.376 201.246 102.066 245.887 117.137 303.201L126.097 301.915C126.012 300.965 125.789 298.367 125.573 294.649C125.565 294.533 125.608 294.418 125.689 294.335C133.426 286.268 151.414 265.756 151.374 249.548C151.324 229.947 141.751 200.456 140.6 196.982L136.519 197.637C136.389 197.658 136.258 197.617 136.164 197.526C136.07 197.436 136.022 197.306 136.037 197.177L136.199 195.702L107.95 196.916L107.948 196.914ZM125.469 278.602C125.442 278.602 125.414 278.6 125.384 278.592C125.19 278.552 125.052 278.382 125.05 278.184C124.972 264.01 125.87 251.448 127.718 240.848C127.753 240.643 127.928 240.493 128.141 240.5C128.348 240.506 128.521 240.661 128.547 240.867C129.898 251.61 130.186 260.035 129.404 265.904C128.859 269.994 127.664 274.182 125.853 278.348C125.785 278.504 125.634 278.6 125.469 278.6V278.602ZM128.067 243.917C126.633 253.286 125.902 264.077 125.885 276.073C127.222 272.623 128.126 269.175 128.575 265.795C129.275 260.542 129.103 253.19 128.067 243.917Z" fill="black"/>
<path d="M126.846 249.241C126.615 249.241 126.428 249.054 126.426 248.824C126.386 241.769 129.244 228.052 132.222 223.692C132.351 223.502 132.611 223.452 132.804 223.583C132.994 223.715 133.044 223.975 132.913 224.166C130.064 228.337 127.224 242.026 127.263 248.819C127.263 249.05 127.078 249.239 126.847 249.241H126.846Z" fill="black"/>
<path d="M125.864 289.11C125.644 289.11 125.459 288.938 125.446 288.714C125.084 282.227 125.14 271.571 125.14 271.464C125.14 271.233 125.328 271.048 125.559 271.048H125.561C125.792 271.048 125.978 271.238 125.977 271.47C125.977 271.577 125.921 282.206 126.281 288.668C126.294 288.899 126.117 289.097 125.886 289.11C125.879 289.11 125.869 289.11 125.862 289.11H125.864Z" fill="black"/>
<path d="M160.229 184.351C156.878 184.73 160.508 175.971 160.508 175.971L173.815 175.29L183.887 172.508C184.922 172.221 185.995 172.821 186.298 173.855C186.607 174.909 185.995 176.014 184.94 176.308L180.442 177.564C179.817 177.738 179.592 178.509 180.024 178.994C180.693 179.745 181.489 180.366 182.38 180.829C184 181.669 186.839 183.05 189.814 184.068C191.209 184.545 191.467 186.312 190.076 186.796L180.508 186.386C178.084 186.282 175.055 184.488 173.433 182.675C173.433 182.675 165.995 183.7 160.229 184.351Z" fill="white"/>
<path d="M190.076 187.214C190.076 187.214 190.065 187.214 190.058 187.214L180.49 186.804C177.922 186.695 174.907 184.854 173.272 183.121C172.003 183.294 165.431 184.184 160.275 184.769C159.483 184.859 159.045 184.515 158.816 184.212C157.452 182.397 159.843 176.481 160.12 175.812C160.183 175.662 160.323 175.562 160.486 175.555L173.748 174.876L183.776 172.107C185.021 171.762 186.335 172.493 186.701 173.738C186.882 174.358 186.81 175.009 186.498 175.573C186.185 176.136 185.674 176.541 185.053 176.715L180.554 177.971C180.399 178.013 180.285 178.128 180.238 178.281C180.192 178.437 180.229 178.596 180.336 178.716C180.976 179.434 181.727 180.02 182.574 180.459C184.035 181.217 186.937 182.643 189.95 183.672C190.826 183.972 191.417 184.739 191.419 185.581C191.419 186.315 190.959 186.933 190.215 187.192C190.17 187.207 190.124 187.216 190.078 187.216L190.076 187.214ZM173.433 182.257C173.551 182.257 173.665 182.307 173.745 182.395C175.245 184.071 178.192 185.866 180.527 185.966L190.01 186.373C190.506 186.169 190.582 185.794 190.582 185.581C190.582 185.178 190.301 184.674 189.681 184.464C186.771 183.468 184.002 182.14 182.189 181.2C181.253 180.714 180.42 180.066 179.714 179.271C179.415 178.934 179.311 178.476 179.437 178.043C179.564 177.61 179.897 177.281 180.331 177.16L184.829 175.904C185.23 175.791 185.563 175.529 185.766 175.164C185.969 174.798 186.015 174.374 185.899 173.973C185.663 173.165 184.811 172.689 184.002 172.913L173.929 175.695C173.9 175.703 173.87 175.708 173.839 175.71L160.796 176.378C159.839 178.764 158.703 182.664 159.486 183.707C159.577 183.829 159.747 183.984 160.183 183.935C165.877 183.291 173.301 182.27 173.377 182.26C173.396 182.259 173.416 182.257 173.434 182.257H173.433Z" fill="black"/>
<path d="M127.452 123.255C119.909 124.986 114.571 128.719 114.571 128.719C114.571 128.719 103.032 136.087 103.306 150.146C103.518 161.055 110.72 172.962 110.657 173.893C109.944 184.304 102.225 200.286 103.302 203.997C105.913 213.002 151.542 213.25 152.2 209.123C152.494 207.281 148.141 192.706 150.855 180.084C153.587 167.366 154.57 154.876 154.57 154.876C160.238 164.686 167.238 170.811 183.532 168.51C199.79 166.214 209.071 164.144 209.071 164.144L207.793 155.054C207.793 155.054 195.468 150.786 182.078 152.223C174.101 153.08 162.381 133.871 158.354 130.284C154.289 126.666 149.36 124.139 144.016 123.133C139.314 122.247 133.484 121.871 127.454 123.255H127.452Z" fill="white"/>
<path d="M136.042 212.105C122.98 212.105 104.634 210.094 102.899 204.114C102.346 202.21 103.819 197.717 105.681 192.029C107.645 186.03 109.873 179.23 110.239 173.863C110.213 173.676 109.745 172.687 109.25 171.64C107.238 167.379 103.05 158.515 102.888 150.154C102.612 136.022 114.229 128.44 114.345 128.364C114.384 128.336 119.821 124.576 127.357 122.844C132.563 121.649 138.192 121.607 144.091 122.718C149.399 123.719 154.425 126.226 158.63 129.97C159.763 130.978 161.407 133.087 163.489 135.756C168.66 142.386 176.469 152.407 182.033 151.805C195.359 150.376 207.805 154.614 207.929 154.658C208.077 154.71 208.184 154.839 208.206 154.996L209.484 164.087C209.516 164.303 209.373 164.507 209.161 164.555C209.069 164.575 199.678 166.652 183.591 168.926C167.808 171.155 160.539 165.528 154.873 156.21C154.54 159.741 153.463 169.938 151.264 180.175C149.278 189.417 151.115 199.722 152.1 205.259C152.506 207.542 152.698 208.663 152.613 209.192C152.39 210.598 148.95 211.519 142.391 211.928C140.525 212.044 138.366 212.107 136.042 212.107V212.105ZM127.451 123.255L127.545 123.664C120.174 125.356 114.865 129.026 114.811 129.063C114.684 129.145 103.459 136.487 103.725 150.139C103.883 158.319 108.02 167.074 110.008 171.283C110.835 173.034 111.096 173.604 111.074 173.922C110.699 179.392 108.456 186.246 106.475 192.291C104.802 197.401 103.222 202.227 103.702 203.881C105.374 209.649 127.706 212.003 142.338 211.09C149.626 210.635 151.704 209.562 151.785 209.059C151.85 208.646 151.597 207.216 151.274 205.405C150.278 199.811 148.423 189.4 150.444 179.997C153.14 167.452 154.143 154.969 154.152 154.845C154.167 154.662 154.298 154.51 154.477 154.469C154.655 154.429 154.841 154.51 154.932 154.669C160.531 164.359 167.529 170.348 183.473 168.097C197.722 166.085 206.7 164.225 208.599 163.82L207.412 155.374C205.625 154.799 194.243 151.341 182.12 152.643C181.932 152.664 181.74 152.673 181.548 152.673C175.617 152.673 168.252 143.23 162.828 136.276C160.853 133.743 159.147 131.559 158.072 130.601C153.982 126.958 149.094 124.518 143.936 123.547C138.151 122.458 132.635 122.498 127.543 123.667L127.449 123.258L127.451 123.255Z" fill="black"/>
<path d="M120.098 129.741C120.098 129.741 111.881 133.234 107.543 147.452C105.149 155.299 105.587 166.488 117.396 181.363C119.757 184.338 123.075 187.298 126.819 187.725L162.707 186.032L162.549 174.426C162.549 174.426 134.717 172.817 130.534 171.228C126.83 169.82 121.464 151.494 120.906 142.5L120.098 129.739V129.741Z" fill="white"/>
<path d="M126.82 188.144C126.803 188.144 126.788 188.144 126.772 188.142C122.654 187.673 119.221 184.339 117.067 181.625C115.796 180.025 114.57 178.399 113.419 176.795C113.284 176.607 113.326 176.346 113.515 176.211C113.701 176.076 113.964 176.118 114.098 176.307C115.24 177.9 116.461 179.515 117.723 181.104C119.774 183.686 123.016 186.855 126.833 187.306L162.283 185.634L162.135 174.824C158.612 174.614 134.357 173.131 130.385 171.621C127.023 170.345 123.066 157.594 121.449 149.377C121.405 149.149 121.553 148.929 121.78 148.885C122.005 148.84 122.227 148.988 122.271 149.216C124.124 158.635 128.035 169.833 130.683 170.837C134.758 172.385 162.296 173.993 162.573 174.008C162.793 174.021 162.965 174.2 162.968 174.42L163.127 186.026C163.131 186.252 162.954 186.441 162.728 186.45L126.84 188.142C126.84 188.142 126.827 188.142 126.82 188.142V188.144Z" fill="black"/>
<path d="M128.39 100.702L126.861 93.367C126.53 91.7835 127.308 90.1797 128.751 89.4508C130.812 88.4112 134.082 87.2495 138.086 87.527C139.639 87.6343 140.94 88.7516 141.295 90.2703L142.789 96.6653L128.392 100.7L128.39 100.702Z" fill="white"/>
<path d="M128.391 101.121C128.315 101.121 128.239 101.101 128.173 101.06C128.073 100.999 128.005 100.901 127.981 100.788L126.451 93.4537C126.083 91.6907 126.952 89.8908 128.563 89.0787C130.652 88.0243 134.007 86.8275 138.114 87.1105C139.86 87.2307 141.301 88.4627 141.701 90.1776L143.194 96.5725C143.246 96.7908 143.115 97.0109 142.899 97.072L128.502 101.107C128.465 101.118 128.426 101.121 128.389 101.121H128.391ZM136.889 87.9041C133.503 87.9041 130.735 88.9197 128.941 89.8242C127.668 90.4661 126.983 91.8868 127.273 93.2798L128.71 100.176L142.289 96.369L140.887 90.3644C140.571 89.0122 139.433 88.0373 138.058 87.9429C137.661 87.9152 137.271 87.9022 136.889 87.9022V87.9041Z" fill="black"/>
<path d="M142.089 90.5392C141.496 90.4744 138.016 90.147 134.862 92.2207C131.797 94.237 132.082 96.5197 129.135 97.8498C126.931 98.845 125.793 98.1698 123.135 98.4954C119.177 98.98 114.359 101.52 112.357 105.467C109.225 111.642 112.946 121.33 119.8 123.914C124.243 125.59 128.542 123.731 129.407 123.333C131.478 122.381 133.526 119.706 137.624 114.356C141.864 108.819 143.985 106.052 144.038 103.684C144.046 103.34 144.033 102.09 144.803 101.572C145.461 101.128 146.144 101.561 147 101.511C148.825 101.403 150.739 99.1447 150.887 97.2911C151.142 94.0983 146.252 90.9942 142.087 90.541L142.089 90.5392Z" fill="black"/>
<path d="M139.916 120.374L139.72 115.141C143.879 115.187 144.359 108.037 144.359 108.037L144.729 100.875C144.729 100.875 142.482 100.902 140.738 99.8795C138.994 98.8565 133.055 97.7522 132.319 101.615L132.231 103.157C132.231 103.157 130.938 101.746 129.655 103.157C128.373 104.569 131.383 107.549 132.124 108.344C132.124 108.344 132.198 108.563 132.351 108.92L131.88 120.487C131.848 121.275 131.368 121.976 130.646 122.292L124.59 124.94L139.131 129.88L146.327 124.153L141.246 122.229C140.472 121.935 139.949 121.206 139.918 120.38L139.916 120.374Z" fill="white"/>
<path d="M139.129 130.295C139.083 130.295 139.038 130.287 138.994 130.272L124.453 125.332C124.288 125.276 124.176 125.124 124.168 124.952C124.161 124.778 124.261 124.619 124.42 124.551L130.475 121.904C131.046 121.654 131.432 121.09 131.458 120.466L131.926 108.995C131.844 108.801 131.787 108.655 131.756 108.566L131.641 108.444C130.518 107.258 127.885 104.48 129.345 102.874C129.805 102.367 130.324 102.11 130.889 102.11H130.893C131.262 102.11 131.591 102.223 131.857 102.364L131.902 101.59C131.902 101.572 131.905 101.553 131.909 101.537C132.134 100.36 132.831 99.4761 133.928 98.9766C136.215 97.937 139.663 98.7639 140.95 99.5186C142.572 100.471 144.703 100.457 144.725 100.457H144.73C144.845 100.457 144.954 100.503 145.031 100.586C145.111 100.669 145.153 100.782 145.148 100.899L144.778 108.061C144.758 108.365 144.254 115.137 140.154 115.544L140.335 120.361C140.361 121.021 140.775 121.6 141.394 121.835L146.474 123.759C146.615 123.813 146.716 123.937 146.74 124.087C146.764 124.236 146.705 124.386 146.587 124.479L139.391 130.206C139.315 130.265 139.223 130.297 139.131 130.297L139.129 130.295ZM125.746 124.884L139.046 129.403L145.486 124.279L141.094 122.616C140.16 122.263 139.533 121.388 139.496 120.389L139.301 115.155C139.297 115.041 139.339 114.93 139.419 114.847C139.498 114.765 139.626 114.715 139.724 114.719C139.735 114.719 139.748 114.719 139.759 114.719C143.443 114.719 143.936 108.072 143.941 108.006L144.289 101.276C143.518 101.23 141.891 101.039 140.527 100.238C139.437 99.5982 136.243 98.8416 134.274 99.7369C133.42 100.125 132.916 100.756 132.737 101.664L132.65 103.18C132.641 103.348 132.532 103.494 132.373 103.549C132.214 103.607 132.038 103.562 131.924 103.438C131.92 103.435 131.458 102.946 130.895 102.946H130.887C130.57 102.948 130.259 103.113 129.966 103.437C129.345 104.119 130.113 105.61 132.251 107.865L132.43 108.054C132.471 108.096 132.502 108.148 132.521 108.206C132.524 108.215 132.593 108.418 132.737 108.748C132.763 108.805 132.774 108.868 132.77 108.931L132.299 120.498C132.26 121.439 131.678 122.292 130.815 122.67L125.75 124.882L125.746 124.884Z" fill="black"/>
<path d="M134.783 107.048C135.01 107.629 135.381 108.818 135.145 110.281C135.021 111.053 134.764 111.669 134.539 112.103C135.045 113.102 135.672 113.739 136.082 114.094C136.082 114.094 137.412 115.392 139.965 115.694C140.501 115.757 140.794 115.761 141.195 115.661C142.381 115.368 143.046 114.362 143.418 113.803C144.977 111.449 144.63 108.141 144.53 107.349C144.53 107.349 137.953 108.378 134.783 107.046V107.048Z" fill="white"/>
<path d="M140.575 116.159C140.376 116.159 140.165 116.14 139.918 116.11C137.254 115.796 135.85 114.449 135.79 114.394C135.135 113.826 134.582 113.114 134.167 112.292C134.106 112.172 134.106 112.03 134.168 111.909C134.447 111.373 134.638 110.801 134.734 110.213C134.937 108.953 134.662 107.879 134.396 107.2C134.335 107.042 134.372 106.865 134.492 106.746C134.612 106.628 134.791 106.595 134.946 106.66C137.969 107.929 144.401 106.944 144.466 106.935C144.579 106.917 144.691 106.946 144.782 107.015C144.872 107.083 144.932 107.185 144.946 107.298C145.103 108.552 145.301 111.719 143.768 114.037C143.374 114.632 142.641 115.739 141.296 116.07C141.039 116.133 140.814 116.159 140.575 116.159ZM135.009 112.098C135.362 112.744 135.814 113.308 136.356 113.778C136.385 113.805 137.649 114.999 140.014 115.28C140.537 115.341 140.769 115.337 141.094 115.256C142.122 115.002 142.715 114.109 143.067 113.574C144.302 111.711 144.281 109.173 144.159 107.827C142.755 108.015 138.331 108.508 135.436 107.712C135.619 108.432 135.722 109.336 135.56 110.348C135.462 110.953 135.277 111.539 135.011 112.098H135.009Z" fill="black"/>
<path d="M134.786 107.443C134.652 107.443 134.517 107.377 134.437 107.255L131.882 103.387C131.755 103.194 131.807 102.933 132.001 102.806C132.193 102.678 132.453 102.732 132.581 102.924L135.136 106.792C135.263 106.985 135.209 107.245 135.017 107.373C134.945 107.419 134.866 107.443 134.786 107.443Z" fill="black"/>
<path d="M134.541 112.524C134.403 112.524 134.27 112.456 134.188 112.332L131.768 108.569C131.737 108.521 131.717 108.467 131.707 108.41C131.41 106.59 131.406 105.228 131.406 105.171C131.406 104.94 131.593 104.751 131.824 104.751C132.055 104.751 132.243 104.938 132.243 105.169C132.243 105.182 132.249 106.479 132.52 108.188L134.892 111.878C135.018 112.073 134.961 112.334 134.767 112.457C134.697 112.502 134.619 112.524 134.541 112.524Z" fill="black"/>
<path d="M228.895 232.149L240.419 224.8C241.533 224.09 241.855 222.604 241.136 221.496L234.846 211.807L219.312 221.714L225.627 231.441C226.338 232.536 227.798 232.852 228.897 232.151L228.895 232.149Z" fill="white"/>
<path d="M227.628 232.94C226.712 232.94 225.81 232.49 225.276 231.669L218.962 221.942C218.901 221.848 218.88 221.735 218.904 221.624C218.928 221.515 218.995 221.419 219.089 221.36L234.622 211.452C234.816 211.328 235.073 211.383 235.199 211.578L241.489 221.267C241.899 221.898 242.036 222.651 241.877 223.387C241.718 224.123 241.28 224.75 240.647 225.154L229.122 232.503C228.661 232.797 228.142 232.94 227.628 232.94ZM219.895 221.839L225.978 231.21C226.562 232.109 227.768 232.37 228.672 231.795L240.196 224.445C240.639 224.162 240.946 223.722 241.057 223.208C241.168 222.691 241.072 222.166 240.785 221.724L234.722 212.382L219.895 221.839Z" fill="black"/>
<path d="M186.703 167.606L200.074 159.076L173.401 117.153L160.03 125.683L186.703 167.606Z" fill="white"/>
<path d="M186.701 168.01C186.562 168.01 186.427 167.942 186.348 167.816L159.679 125.893C159.619 125.799 159.599 125.686 159.623 125.577C159.647 125.467 159.714 125.373 159.808 125.314L173.18 116.784C173.374 116.66 173.632 116.718 173.758 116.912L200.427 158.835C200.486 158.929 200.507 159.042 200.483 159.151C200.459 159.261 200.392 159.355 200.298 159.414L186.926 167.944C186.856 167.988 186.778 168.01 186.701 168.01ZM160.61 125.795L186.828 167.011L199.494 158.933L173.276 117.717L160.61 125.795Z" fill="black"/>
<path d="M175.336 319.08H208.845V288.7H194.448L175.336 319.08Z" fill="black"/>
<path d="M208.842 319.498H175.334C175.18 319.498 175.042 319.415 174.966 319.282C174.892 319.149 174.898 318.986 174.979 318.857L194.091 288.476C194.166 288.354 194.301 288.28 194.445 288.28H208.842C209.073 288.28 209.262 288.467 209.262 288.7V319.08C209.262 319.312 209.075 319.5 208.842 319.5V319.498ZM176.093 318.66H208.425V289.12H194.676L176.093 318.66Z" fill="black"/>
<path d="M165.758 319.08H199.266V288.7H184.869L165.758 319.08Z" fill="white"/>
<path d="M199.264 319.498H165.756C165.602 319.498 165.464 319.415 165.388 319.282C165.314 319.149 165.32 318.986 165.401 318.857L184.512 288.476C184.588 288.354 184.723 288.28 184.867 288.28H199.266C199.497 288.28 199.685 288.467 199.685 288.7V319.08C199.685 319.312 199.499 319.5 199.266 319.5L199.264 319.498ZM166.513 318.66H198.845V289.12H185.096L166.513 318.66Z" fill="black"/>
<path d="M201.583 184.453L213.593 203.334C211.818 203.105 210.009 202.987 208.171 202.987C184.925 202.987 166.079 221.855 166.079 245.132C166.079 268.409 184.925 287.464 208.171 287.464C220.698 287.464 231.945 281.861 239.656 273.47H262.363C252.234 292.949 231.77 306.353 208.171 306.353C174.505 306.353 147.215 278.933 147.215 245.224C147.215 213.745 171.015 187.744 201.581 184.451L201.583 184.453Z" fill="black"/>
<path d="M208.172 306.773C174.329 306.773 146.797 279.162 146.797 245.225C146.797 229.963 152.419 215.318 162.626 203.988C172.764 192.731 186.585 185.646 201.538 184.035C201.699 184.016 201.85 184.092 201.937 184.227L213.947 203.109C214.034 203.246 214.034 203.421 213.947 203.558C213.86 203.695 213.701 203.769 213.541 203.749C211.769 203.521 209.964 203.405 208.172 203.405C185.194 203.405 166.5 222.124 166.5 245.132C166.5 268.141 185.194 287.044 208.172 287.044C219.892 287.044 231.256 281.992 239.349 273.185C239.429 273.098 239.541 273.05 239.658 273.05H262.365C262.511 273.05 262.647 273.126 262.723 273.252C262.799 273.377 262.804 273.533 262.736 273.662C252.115 294.085 231.208 306.771 208.172 306.771V306.773ZM201.37 184.899C170.717 188.332 147.636 214.221 147.636 245.226C147.636 278.701 174.793 305.935 208.172 305.935C230.663 305.935 251.097 293.674 261.67 273.892H239.841C231.598 282.788 220.066 287.886 208.172 287.886C184.732 287.886 165.661 268.708 165.661 245.134C165.661 221.559 184.73 202.569 208.172 202.569C209.702 202.569 211.244 202.652 212.767 202.815L201.37 184.899Z" fill="black"/>
<path d="M194.653 184.453L206.663 203.334C204.888 203.105 203.079 202.987 201.241 202.987C177.995 202.987 159.149 221.855 159.149 245.132C159.149 268.409 177.995 287.464 201.241 287.464C213.768 287.464 225.016 281.861 232.727 273.47H255.434C245.304 292.949 224.84 306.353 201.241 306.353C167.575 306.353 140.285 278.933 140.285 245.224C140.285 213.745 164.086 187.744 194.651 184.451L194.653 184.453Z" fill="white"/>
<path d="M201.241 306.773C167.399 306.773 139.867 279.162 139.867 245.225C139.867 229.963 145.489 215.318 155.696 203.988C165.835 192.731 179.655 185.646 194.608 184.035C194.769 184.016 194.921 184.092 195.007 184.227L207.018 203.109C207.104 203.246 207.104 203.421 207.018 203.558C206.931 203.695 206.775 203.769 206.611 203.749C204.839 203.521 203.033 203.405 201.242 203.405C178.264 203.405 159.57 222.124 159.57 245.132C159.57 268.141 178.264 287.044 201.242 287.044C212.963 287.044 224.326 281.992 232.42 273.185C232.499 273.098 232.612 273.05 232.728 273.05H255.435C255.581 273.05 255.718 273.126 255.793 273.252C255.869 273.377 255.875 273.533 255.806 273.662C245.185 294.085 224.278 306.771 201.242 306.771L201.241 306.773ZM194.438 184.899C163.786 188.332 140.704 214.221 140.704 245.226C140.704 278.701 167.861 305.935 201.241 305.935C223.731 305.935 244.166 293.674 254.738 273.892H232.909C224.666 282.788 213.134 287.886 201.241 287.886C177.8 287.886 158.731 268.708 158.731 245.134C158.731 221.559 177.8 202.569 201.241 202.569C202.772 202.569 204.313 202.652 205.835 202.815L194.438 184.899Z" fill="black"/>
<path d="M205.628 221.39L218.318 213.1L191.053 170.239L178.363 178.53L205.628 221.39Z" fill="black"/>
<path d="M205.628 221.81C205.599 221.81 205.569 221.806 205.54 221.801C205.431 221.777 205.335 221.71 205.276 221.616L178.011 178.756C177.888 178.562 177.943 178.305 178.135 178.179L190.825 169.888C190.919 169.827 191.034 169.805 191.143 169.829C191.252 169.853 191.348 169.919 191.407 170.014L218.671 212.873C218.795 213.067 218.74 213.325 218.548 213.45L205.858 221.741C205.789 221.786 205.71 221.81 205.628 221.81ZM178.941 178.655L205.754 220.807L217.742 212.975L190.929 170.822L178.941 178.655Z" fill="black"/>
<path d="M220.975 224.89L237.293 214.481C238.976 213.408 239.469 211.174 238.4 209.489L197.335 144.934C196.402 143.467 194.457 143.034 192.99 143.969L175.886 154.877C174.421 155.811 173.989 157.759 174.922 159.228L215.987 223.782C217.058 225.468 219.29 225.962 220.973 224.89H220.975Z" fill="white"/>
<path d="M219.043 225.876C218.749 225.876 218.455 225.844 218.161 225.778C217.11 225.545 216.212 224.916 215.634 224.006L174.569 159.451C173.513 157.792 174.002 155.58 175.661 154.523L192.765 143.615C193.568 143.102 194.522 142.934 195.453 143.141C196.382 143.348 197.176 143.905 197.688 144.708L238.753 209.262C239.946 211.138 239.392 213.637 237.519 214.834L221.2 225.243C220.544 225.661 219.802 225.876 219.043 225.876ZM194.675 143.896C194.161 143.896 193.659 144.042 193.215 144.325L176.112 155.234C174.843 156.042 174.47 157.735 175.277 159.005L216.342 223.56C216.8 224.279 217.511 224.779 218.342 224.964C219.174 225.149 220.029 224.997 220.75 224.538L237.068 214.129C238.551 213.182 238.991 211.203 238.045 209.716L196.981 145.161C196.589 144.545 195.981 144.12 195.27 143.962C195.072 143.918 194.873 143.896 194.673 143.896H194.675Z" fill="black"/>
<path d="M171.392 111.261L155.236 121.567C154.605 121.97 154.419 122.808 154.821 123.439L156.618 126.263C157.02 126.895 157.857 127.081 158.488 126.678L174.644 116.372C175.274 115.97 175.46 115.132 175.058 114.5L173.262 111.676C172.86 111.045 172.023 110.859 171.392 111.261Z" fill="white"/>
<path d="M157.761 127.327C157.632 127.327 157.503 127.312 157.373 127.284C156.911 127.18 156.516 126.905 156.261 126.505L154.465 123.682C154.211 123.283 154.127 122.807 154.231 122.345C154.334 121.882 154.61 121.487 155.009 121.231L171.166 110.926C171.565 110.671 172.04 110.587 172.502 110.691C172.964 110.794 173.359 111.07 173.614 111.47L175.41 114.293C175.665 114.692 175.748 115.168 175.644 115.63C175.541 116.092 175.266 116.488 174.867 116.744L158.709 127.049C158.421 127.232 158.094 127.328 157.759 127.328L157.761 127.327ZM172.116 111.484C171.94 111.484 171.767 111.534 171.615 111.631L155.458 121.936C155.247 122.071 155.101 122.278 155.047 122.523C154.994 122.767 155.038 123.018 155.173 123.229L156.969 126.052C157.104 126.263 157.311 126.409 157.554 126.463C157.8 126.516 158.049 126.472 158.26 126.339L174.418 116.033C174.628 115.898 174.774 115.691 174.828 115.447C174.881 115.203 174.837 114.951 174.702 114.74L172.906 111.917C172.772 111.706 172.565 111.56 172.321 111.507C172.253 111.492 172.184 111.484 172.116 111.484Z" fill="black"/>
<path d="M215.327 273.396H273.062V266.774H215.327V273.396Z" fill="white"/>
<path d="M273.061 273.815H215.326C215.095 273.815 214.906 273.628 214.906 273.395V266.772C214.906 266.541 215.093 266.353 215.326 266.353H273.061C273.292 266.353 273.481 266.539 273.481 266.772V273.395C273.481 273.626 273.294 273.815 273.061 273.815ZM215.743 272.977H272.642V267.192H215.743V272.977Z" fill="black"/>
<path d="M156.754 330.885H259V319.005H156.754V330.885Z" fill="black"/>
<path d="M258.997 331.303H156.751C156.52 331.303 156.332 331.116 156.332 330.883V319.003C156.332 318.772 156.519 318.583 156.751 318.583H258.997C259.228 318.583 259.417 318.77 259.417 319.003V330.883C259.417 331.114 259.23 331.303 258.997 331.303ZM157.171 330.465H258.58V319.425H157.171V330.465Z" fill="black"/>
<path d="M141.513 330.885H247.117V319.005H141.513V330.885Z" fill="white"/>
<path d="M247.118 331.303H141.513C141.282 331.303 141.094 331.116 141.094 330.883V319.003C141.094 318.772 141.28 318.583 141.513 318.583H247.118C247.349 318.583 247.537 318.77 247.537 319.003V330.883C247.537 331.114 247.35 331.303 247.118 331.303ZM141.932 330.465H246.698V319.425H141.932V330.465Z" fill="black"/>
<path d="M183.71 214.064C192.28 214.064 199.228 207.107 199.228 198.525C199.228 189.943 192.28 182.986 183.71 182.986C175.139 182.986 168.191 189.943 168.191 198.525C168.191 207.107 175.139 214.064 183.71 214.064Z" fill="white"/>
<path d="M183.711 214.484C174.923 214.484 167.773 207.325 167.773 198.525C167.773 189.725 174.923 182.566 183.711 182.566C192.499 182.566 199.649 189.725 199.649 198.525C199.649 207.325 192.499 214.484 183.711 214.484ZM183.711 183.406C175.385 183.406 168.61 190.19 168.61 198.527C168.61 206.864 175.385 213.648 183.711 213.648C192.038 213.648 198.812 206.864 198.812 198.527C198.812 190.19 192.038 183.406 183.711 183.406Z" fill="black"/>
<path d="M189.51 204.329C192.71 201.124 192.71 195.928 189.51 192.724C186.309 189.519 181.12 189.519 177.92 192.724C174.719 195.929 174.719 201.124 177.92 204.329C181.12 207.533 186.309 207.533 189.51 204.329Z" fill="black"/>
<path d="M183.716 207.152C178.966 207.152 175.102 203.282 175.102 198.526C175.102 193.77 178.966 189.9 183.716 189.9C188.466 189.9 192.331 193.77 192.331 198.526C192.331 203.282 188.466 207.152 183.716 207.152ZM183.716 190.74C179.428 190.74 175.938 194.233 175.938 198.526C175.938 202.82 179.426 206.312 183.716 206.312C188.006 206.312 191.492 202.82 191.492 198.526C191.492 194.233 188.004 190.74 183.716 190.74Z" fill="black"/>
<path d="M257.019 265.915C257.631 265.915 258.056 265.321 257.878 264.734C256.894 261.497 251.93 259.033 245.955 259.033C239.98 259.033 235.024 261.492 234.034 264.727C233.854 265.313 234.279 265.907 234.891 265.909C238.859 265.911 253.055 265.915 257.021 265.915H257.019Z" fill="white"/>
<path d="M257.019 266.333C253.053 266.333 238.857 266.329 234.889 266.327C234.468 266.327 234.083 266.133 233.832 265.795C233.577 265.45 233.505 265.016 233.631 264.605C234.693 261.135 239.877 258.615 245.953 258.615C252.029 258.615 257.22 261.138 258.277 264.612C258.403 265.025 258.329 265.458 258.074 265.802C257.825 266.14 257.438 266.335 257.017 266.335L257.019 266.333ZM245.953 259.451C240.328 259.451 235.375 261.771 234.432 264.847C234.384 265.003 234.412 265.166 234.506 265.293C234.597 265.415 234.737 265.486 234.889 265.486C238.857 265.487 253.053 265.491 257.019 265.491C257.228 265.491 257.35 265.371 257.402 265.299C257.496 265.171 257.523 265.008 257.475 264.853C256.539 261.773 251.584 259.45 245.951 259.45L245.953 259.451Z" fill="black"/>
<path d="M239.528 263.745C239.406 263.745 239.285 263.691 239.201 263.587C239.057 263.406 239.085 263.143 239.266 262.997C240.748 261.808 243.046 261.086 245.568 261.02C245.78 261.012 245.991 261.195 245.998 261.429C246.004 261.66 245.821 261.852 245.59 261.86C243.281 261.921 241.114 262.59 239.789 263.652C239.711 263.715 239.619 263.745 239.528 263.745Z" fill="black"/>
<path d="M170.34 175.478L173.159 175.332L176.471 174.637L184.103 172.528C185.138 172.241 186.211 172.84 186.514 173.874C186.823 174.929 186.211 176.033 185.156 176.327L180.658 177.583C180.033 177.757 179.808 178.529 180.24 179.013C180.909 179.764 181.705 180.386 182.596 180.848C184.216 181.688 187.055 183.07 190.03 184.087C191.425 184.565 191.683 186.331 190.292 186.816L180.724 186.405C178.831 186.324 177.029 185.643 175.553 184.494C172.045 181.76 170.34 175.478 170.34 175.478Z" fill="white"/>
<path d="M190.293 187.235C190.293 187.235 190.282 187.235 190.275 187.235L180.707 186.825C178.501 186.73 176.386 185.857 174.753 184.365L173.5 183.136L164.948 184.222C164.717 184.254 164.509 184.089 164.481 183.859C164.451 183.63 164.614 183.419 164.843 183.391L173.594 182.28C173.722 182.263 173.849 182.306 173.94 182.396L175.325 183.756C176.801 185.104 178.728 185.902 180.74 185.987L190.223 186.394C190.72 186.19 190.796 185.815 190.796 185.602C190.796 185.199 190.515 184.696 189.894 184.485C186.829 183.438 183.884 181.991 182.403 181.222C181.468 180.737 180.633 180.088 179.927 179.292C179.628 178.956 179.524 178.497 179.65 178.064C179.778 177.631 180.11 177.302 180.544 177.18L185.043 175.924C185.445 175.811 185.778 175.548 185.979 175.184C186.183 174.817 186.229 174.394 186.11 173.992C185.874 173.184 185.022 172.709 184.213 172.932L175.015 175.472C174.998 175.476 174.982 175.48 174.965 175.483C174.926 175.489 170.943 176.07 163.208 176.355C162.979 176.366 162.783 176.183 162.774 175.951C162.765 175.72 162.946 175.526 163.177 175.517C170.544 175.245 174.472 174.706 174.817 174.658L183.99 172.124C185.237 171.78 186.548 172.512 186.912 173.756C187.093 174.375 187.021 175.026 186.709 175.589C186.397 176.151 185.883 176.558 185.264 176.73L180.766 177.986C180.611 178.029 180.496 178.143 180.45 178.299C180.404 178.454 180.441 178.613 180.548 178.734C181.187 179.451 181.941 180.038 182.785 180.476C184.246 181.235 187.147 182.661 190.162 183.689C191.038 183.989 191.629 184.757 191.631 185.598C191.632 186.333 191.171 186.951 190.426 187.21C190.382 187.224 190.336 187.234 190.289 187.234L190.293 187.235Z" fill="black"/>
<path d="M207.155 154.375L207.183 154.351C204.441 153.711 201.807 153.674 199.32 154.447C198.856 155.35 200.722 155.776 204.026 156.545C202.621 158.772 201.243 161.381 200.316 163.906C199.847 165.18 200.905 166.49 202.252 166.324C203.981 166.109 205.945 165.467 207.473 164.914L209.071 164.146C209.353 159.048 209.093 155.039 207.157 154.377L207.155 154.375Z" fill="white"/>
<path d="M202.282 166.757C201.6 166.757 200.959 166.45 200.529 165.906C200.045 165.294 199.916 164.493 200.184 163.762C201.172 161.076 202.546 158.579 203.623 156.821C200.908 156.187 199.526 155.828 199.175 155.073C199.092 154.894 199.031 154.607 199.21 154.257C199.262 154.157 199.35 154.082 199.457 154.048C201.918 153.282 204.562 153.249 207.54 153.945C207.616 153.963 207.684 154 207.738 154.054C209.495 154.838 210.097 157.896 209.748 164.171C209.74 164.324 209.648 164.459 209.511 164.526L207.913 165.294C207.9 165.299 207.887 165.305 207.874 165.31C206.48 165.815 204.41 166.513 202.563 166.742C202.469 166.753 202.375 166.759 202.28 166.759L202.282 166.757ZM199.967 154.77C200.293 155.184 202.238 155.637 204.292 156.115L204.383 156.135C204.516 156.166 204.623 156.259 204.675 156.385C204.726 156.51 204.713 156.653 204.641 156.768C203.551 158.497 202.029 161.167 200.97 164.049C200.804 164.504 200.884 165.001 201.185 165.382C201.493 165.771 201.972 165.965 202.461 165.906C204.216 165.689 206.214 165.016 207.571 164.526L208.927 163.875C209.055 161.527 209.317 155.469 207.281 154.773C207.244 154.76 207.209 154.744 207.178 154.722C204.525 154.126 202.16 154.141 199.966 154.772L199.967 154.77Z" fill="black"/>
<path d="M189.877 79.049C194.012 97.1295 211.865 108.46 229.752 104.359C247.639 100.258 258.786 82.2752 254.652 64.1947C250.517 46.1142 232.663 34.7838 214.777 38.885C196.89 42.9861 185.742 60.9685 189.877 79.049ZM194.145 78.0704C190.555 62.3726 200.232 46.7616 215.761 43.1988C231.291 39.6378 246.791 49.4754 250.38 65.1733C253.97 80.8711 244.293 96.4821 228.764 100.045C213.234 103.606 197.734 93.7683 194.145 78.0704Z" fill="black"/>
<path d="M222.19 100.821C238.177 100.821 251.137 87.8442 251.137 71.836C251.137 55.8278 238.177 42.8506 222.19 42.8506C206.202 42.8506 193.242 55.8278 193.242 71.836C193.242 87.8442 206.202 100.821 222.19 100.821Z" fill="white"/>
<path d="M210.26 75.3803C212.796 72.8403 212.796 68.7222 210.26 66.1822C207.723 63.6421 203.61 63.6422 201.074 66.1822C198.537 68.7222 198.537 72.8403 201.074 75.3803C203.61 77.9203 207.723 77.9203 210.26 75.3803Z" fill="black"/>
<path d="M235.111 65.7661C237.648 63.2261 237.648 59.1079 235.111 56.5679C232.575 54.0279 228.462 54.0279 225.925 56.5679C223.388 59.1079 223.388 63.2261 225.925 65.7661C228.462 68.3061 232.575 68.3061 235.111 65.7661Z" fill="black"/>
<path d="M235.987 86.9734C236.811 83.4773 234.649 79.9743 231.158 79.1492C227.666 78.324 224.168 80.4892 223.344 83.9853C222.52 87.4813 224.682 90.9843 228.173 91.8095C231.665 92.6346 235.163 90.4694 235.987 86.9734Z" fill="black"/>
<path d="M217.084 62.812C219.318 61.8858 220.378 59.3223 219.453 57.0863C218.528 54.8502 215.968 53.7884 213.735 54.7146C211.502 55.6408 210.441 58.2043 211.366 60.4403C212.291 62.6764 214.851 63.7382 217.084 62.812Z" fill="black"/>
<path d="M222.46 76.0001C224.169 74.2887 224.169 71.514 222.46 69.8026C220.751 68.0912 217.98 68.0912 216.27 69.8026C214.561 71.514 214.561 74.2887 216.27 76.0001C217.98 77.7115 220.751 77.7115 222.46 76.0001Z" fill="black"/>
<path d="M233.202 76.4373C235.152 76.4373 236.733 74.8546 236.733 72.9023C236.733 70.9499 235.152 69.3672 233.202 69.3672C231.253 69.3672 229.672 70.9499 229.672 72.9023C229.672 74.8546 231.253 76.4373 233.202 76.4373Z" fill="black"/>
<path d="M214.14 86.7596C216.09 86.7596 217.67 85.1769 217.67 83.2245C217.67 81.2722 216.09 79.6895 214.14 79.6895C212.19 79.6895 210.609 81.2722 210.609 83.2245C210.609 85.1769 212.19 86.7596 214.14 86.7596Z" fill="black"/>
<path d="M242.097 70.075C244.047 70.075 245.627 68.4923 245.627 66.54C245.627 64.5876 244.047 63.0049 242.097 63.0049C240.147 63.0049 238.566 64.5876 238.566 66.54C238.566 68.4923 240.147 70.075 242.097 70.075Z" fill="black"/>
<path d="M205.509 83.7717C206.475 82.8051 206.475 81.2379 205.509 80.2713C204.544 79.3047 202.979 79.3047 202.013 80.2713C201.048 81.2379 201.048 82.8051 202.013 83.7716C202.979 84.7382 204.544 84.7383 205.509 83.7717Z" fill="black"/>
<path d="M225.082 52.3298C225.396 50.9993 224.573 49.6663 223.245 49.3523C221.916 49.0383 220.585 49.8622 220.271 51.1926C219.957 52.5231 220.78 53.8561 222.109 54.1701C223.438 54.4841 224.769 53.6602 225.082 52.3298Z" fill="black"/>
<path d="M221.603 92.8215C222.568 91.8549 222.568 90.2877 221.603 89.3211C220.638 88.3545 219.073 88.3545 218.107 89.3211C217.142 90.2877 217.142 91.8549 218.107 92.8215C219.073 93.788 220.638 93.788 221.603 92.8215Z" fill="black"/>
<path d="M241.869 81.5812C242.834 80.6146 242.834 79.0475 241.869 78.0809C240.903 77.1143 239.338 77.1143 238.373 78.0809C237.408 79.0475 237.408 80.6146 238.373 81.5812C239.338 82.5478 240.903 82.5478 241.869 81.5812Z" fill="black"/>
<path d="M208.414 58.8337C208.728 57.5033 207.905 56.1702 206.577 55.8562C205.248 55.5422 203.917 56.3661 203.603 57.6965C203.289 59.027 204.112 60.36 205.441 60.674C206.77 60.988 208.101 60.1641 208.414 58.8337Z" fill="black"/>
<path d="M313.832 244.485C313.832 244.485 318.131 249.602 330.851 249.992C342.024 250.337 342.197 247.146 342.072 245.471C341.939 243.709 340.714 241.431 331.022 240.355C320.193 239.15 313.832 244.485 313.832 244.485Z" fill="white"/>
<path d="M332.485 250.438C331.957 250.438 331.408 250.429 330.837 250.412C318.077 250.02 313.691 244.97 313.512 244.756C313.44 244.67 313.405 244.559 313.416 244.449C313.425 244.338 313.479 244.236 313.564 244.164C313.83 243.942 320.185 238.727 331.068 239.937C340.849 241.024 342.33 243.329 342.489 245.44C342.53 245.969 342.622 247.21 341.608 248.272C340.219 249.726 337.228 250.438 332.485 250.438ZM314.469 244.53C315.661 245.631 320.359 249.251 330.863 249.574C336.245 249.741 339.653 249.106 341.002 247.693C341.667 246.998 341.708 246.23 341.652 245.505C341.527 243.84 340.2 241.8 330.974 240.773C321.881 239.761 315.953 243.47 314.467 244.532L314.469 244.53Z" fill="black"/>
<path d="M329.334 333.619C324.961 333.619 321.492 332.646 321.292 332.589C321.071 332.526 320.941 332.293 321.004 332.071C321.069 331.849 321.298 331.72 321.521 331.782C321.588 331.801 328.276 333.673 334.66 332.217C334.884 332.165 335.109 332.308 335.161 332.534C335.213 332.759 335.072 332.985 334.845 333.035C332.964 333.464 331.078 333.619 329.334 333.619Z" fill="black"/>
<path d="M330.342 308.622L329.328 318.29L322.801 319.057V307.594L330.342 308.622Z" fill="white"/>
<path d="M322.802 319.476C322.701 319.476 322.601 319.439 322.523 319.37C322.435 319.291 322.383 319.176 322.383 319.058V307.594C322.383 307.474 322.435 307.357 322.527 307.278C322.617 307.198 322.739 307.161 322.859 307.178L330.401 308.206C330.624 308.236 330.785 308.439 330.761 308.665L329.749 318.332C329.728 318.527 329.575 318.682 329.381 318.704L322.852 319.47C322.835 319.472 322.821 319.474 322.804 319.474L322.802 319.476ZM323.22 308.075V318.586L328.949 317.912L329.885 308.983L323.222 308.073L323.22 308.075Z" fill="black"/>
<path d="M321.772 335.887C324.492 336.27 328.948 336.606 334.182 335.883C335.901 335.644 337.049 333.983 336.633 332.294C335.48 327.601 333.492 318.696 330.082 314.569L329.234 316.807L328.065 314.7C327.904 314.412 327.616 314.217 327.289 314.175L324.726 313.849C324.191 313.781 323.694 314.136 323.583 314.665L323.175 316.607L321.894 314.058L320.801 323.912C320.584 325.87 320.278 327.816 319.884 329.745L319.299 332.614C318.903 334.701 320.191 335.663 321.772 335.887Z" fill="white"/>
<path d="M327.945 336.729C325.448 336.729 323.317 336.527 321.716 336.302C320.637 336.15 319.807 335.704 319.312 335.014C318.843 334.359 318.701 333.525 318.889 332.535L319.475 329.661C319.865 327.75 320.171 325.8 320.384 323.867L321.477 314.011C321.498 313.826 321.638 313.678 321.819 313.645C322.002 313.611 322.185 313.704 322.268 313.868L323.011 315.348L323.173 314.579C323.329 313.842 324.032 313.337 324.781 313.434L327.343 313.759C327.801 313.817 328.208 314.092 328.431 314.497L329.163 315.816L329.691 314.421C329.745 314.283 329.867 314.181 330.014 314.157C330.16 314.133 330.31 314.188 330.406 314.303C333.645 318.223 335.616 326.335 336.794 331.179L337.042 332.195C337.267 333.109 337.092 334.078 336.565 334.857C336.033 335.643 335.185 336.168 334.241 336.3C331.976 336.612 329.856 336.731 327.947 336.731L327.945 336.729ZM322.154 315.509L321.217 323.959C320.999 325.918 320.69 327.894 320.295 329.829L319.709 332.698C319.567 333.447 319.661 334.065 319.992 334.526C320.443 335.156 321.241 335.388 321.83 335.471C324.603 335.861 328.985 336.178 334.123 335.467C334.833 335.369 335.468 334.975 335.869 334.383C336.27 333.793 336.395 333.086 336.225 332.393L335.978 331.375C334.875 326.832 333.063 319.379 330.207 315.417L329.625 316.954C329.567 317.106 329.425 317.211 329.263 317.224C329.094 317.235 328.945 317.152 328.867 317.009L327.698 314.902C327.602 314.73 327.43 314.614 327.236 314.59L324.674 314.264C324.359 314.225 324.056 314.436 323.992 314.751L323.584 316.693C323.547 316.867 323.404 317 323.227 317.022C323.051 317.045 322.88 316.954 322.798 316.795L322.152 315.509H322.154Z" fill="black"/>
<path d="M330.894 326.429C330.894 326.429 330.884 326.429 330.879 326.429L324.76 326.228C324.529 326.22 324.348 326.026 324.356 325.795C324.363 325.564 324.564 325.384 324.788 325.39L330.907 325.591C331.138 325.599 331.319 325.793 331.311 326.024C331.304 326.252 331.119 326.429 330.894 326.429Z" fill="black"/>
<path d="M330.894 333.799C330.894 333.799 330.885 333.799 330.879 333.799L324.76 333.597C324.648 333.597 321.814 333.597 321.501 331.612C321.465 331.383 321.622 331.168 321.849 331.133C322.078 331.096 322.292 331.254 322.327 331.483C322.529 332.758 324.723 332.757 324.77 332.761L330.877 332.963C332.983 332.752 333.144 331.892 333.146 331.883C333.153 331.651 333.362 331.474 333.578 331.477C333.809 331.485 333.99 331.679 333.983 331.91C333.977 332.073 333.846 333.518 330.933 333.799C330.92 333.799 330.905 333.801 330.892 333.801L330.894 333.799Z" fill="black"/>
<path d="M299.771 303.477L298.791 317.584H290.936L290.57 303.477H299.771Z" fill="white"/>
<path d="M298.789 318.003H290.934C290.707 318.003 290.522 317.822 290.514 317.595L290.149 303.486C290.145 303.373 290.189 303.264 290.267 303.182C290.344 303.101 290.453 303.057 290.566 303.057H299.765C299.881 303.057 299.992 303.105 300.071 303.19C300.151 303.275 300.191 303.39 300.182 303.504L299.203 317.613C299.188 317.833 299.005 318.003 298.785 318.003H298.789ZM291.342 317.164H298.399L299.319 303.895H290.998L291.342 317.164Z" fill="black"/>
<path d="M300.84 325.549C300.86 326.884 299.949 328.055 298.651 328.357C294.134 329.409 283.962 331.753 281.059 332.186C277.293 332.748 272.665 331.592 270.675 329.387C268.685 327.182 275.131 321.914 278.19 319.999C282.735 317.152 287.101 311.527 288.931 311.273C290.762 311.02 294.18 316.338 294.18 316.338L299.767 313.989C299.767 313.989 300.74 318.782 300.84 325.551V325.549Z" fill="white"/>
<path d="M279.093 332.747C275.625 332.747 272.054 331.539 270.365 329.667C269.972 329.232 269.819 328.688 269.907 328.05C270.295 325.27 275.507 321.183 277.969 319.641C280.201 318.244 282.366 316.185 284.276 314.37C286.336 312.413 287.824 311 288.875 310.856C290.704 310.602 293.445 314.465 294.339 315.813L299.605 313.599C299.721 313.551 299.85 313.556 299.963 313.616C300.074 313.675 300.151 313.78 300.177 313.902C300.187 313.95 301.16 318.812 301.26 325.542C301.282 327.064 300.225 328.42 298.747 328.766C294.424 329.774 284.055 332.164 281.123 332.601C280.462 332.699 279.778 332.747 279.093 332.747ZM289.071 311.681C289.043 311.681 289.015 311.681 288.987 311.686C288.202 311.795 286.575 313.342 284.851 314.979C282.911 316.821 280.713 318.91 278.411 320.353C275.895 321.929 271.058 325.839 270.733 328.167C270.679 328.551 270.761 328.858 270.982 329.104C272.837 331.16 277.234 332.331 280.995 331.77C283.898 331.337 294.242 328.953 298.553 327.948C299.651 327.693 300.436 326.685 300.419 325.555C300.34 320.146 299.691 315.972 299.448 314.574L294.341 316.722C294.155 316.799 293.937 316.733 293.828 316.562C292.501 314.5 290.186 311.681 289.071 311.681Z" fill="black"/>
<path d="M279.169 330.158C276.306 330.158 273.786 329.614 272.173 328.155C272.001 328 271.988 327.735 272.144 327.563C272.299 327.391 272.563 327.378 272.735 327.533C278.569 332.807 298.432 324.77 298.632 324.688C298.844 324.601 299.09 324.703 299.177 324.918C299.264 325.132 299.162 325.376 298.948 325.465C298.329 325.719 287.35 330.16 279.169 330.16V330.158Z" fill="black"/>
<path d="M287.876 321.613C287.776 321.613 287.676 321.578 287.595 321.505L283.599 317.896C283.427 317.741 283.414 317.476 283.569 317.304C283.724 317.132 283.989 317.119 284.16 317.273L288.156 320.882C288.328 321.037 288.341 321.302 288.186 321.474C288.103 321.566 287.99 321.613 287.876 321.613Z" fill="black"/>
<path d="M332.572 211.503C332.572 211.503 335.007 255.608 336.28 270.832C337.555 286.056 333.302 310.53 333.302 310.53L321.177 309.892C321.177 309.892 320.579 288.459 319.847 276.922C319.657 273.917 318.999 270.965 317.889 268.168C316.252 264.045 313.782 257.111 312.805 250.68C311.286 240.688 306.115 224.907 306.115 224.907C306.115 224.907 301.916 303.672 301.511 309.86C301.511 309.86 292.003 310.284 288.594 308.136C288.594 308.136 282.553 279.415 283.421 263.789C284.288 248.164 283.336 209.341 283.336 209.341L332.572 211.501V211.503Z" fill="black"/>
<path d="M323.992 273.889C323.223 273.889 322.456 273.765 321.712 273.517C321.492 273.443 321.374 273.206 321.448 272.986C321.52 272.766 321.756 272.647 321.978 272.721C323.231 273.139 324.561 273.16 325.826 272.78C326.048 272.714 326.281 272.84 326.347 273.062C326.414 273.284 326.288 273.517 326.066 273.583C325.387 273.787 324.69 273.89 323.994 273.89L323.992 273.889Z" fill="white"/>
<path d="M295.275 295.197C295.048 295.197 294.861 295.013 294.855 294.784C294.726 287.721 286.601 274.432 286.52 274.299C286.398 274.101 286.459 273.844 286.657 273.722C286.852 273.6 287.111 273.662 287.233 273.859C287.573 274.412 295.559 287.475 295.694 294.767C295.698 294.999 295.515 295.189 295.284 295.195C295.28 295.195 295.278 295.195 295.277 295.195L295.275 295.197Z" fill="white"/>
<path d="M242.94 143.397C240.313 140.617 238.783 138.375 238.783 138.375C238.783 138.375 234.1 130.468 230.547 127.61C226.993 124.752 226.437 124.375 226.437 124.375C226.437 124.375 225.323 125.862 226.437 127.61C227.07 128.606 228.339 130.093 229.315 131.192C229.958 131.913 229.969 132.99 229.357 133.739C228.591 134.675 227.914 136.212 228.766 138.377C230.043 141.618 233.004 142.315 234.53 142.455C235.101 142.507 235.581 142.901 235.735 143.456C235.991 144.381 236.448 145.915 237.124 147.835L242.94 143.401V143.397Z" fill="white"/>
<path d="M237.123 148.251C237.083 148.251 237.042 148.246 237.003 148.235C236.876 148.196 236.772 148.1 236.728 147.972C236.054 146.056 235.595 144.518 235.329 143.567C235.222 143.183 234.893 142.909 234.491 142.872C232.784 142.717 229.721 141.945 228.374 138.53C227.439 136.157 228.215 134.47 229.031 133.473C229.517 132.879 229.504 132.037 229 131.471C228.028 130.378 226.733 128.859 226.081 127.838C224.825 125.866 226.046 124.196 226.1 124.125C226.234 123.946 226.484 123.903 226.669 124.029C226.693 124.046 227.282 124.449 230.807 127.285C234.378 130.158 238.948 137.837 239.141 138.162C239.141 138.162 240.67 140.388 243.242 143.109C243.323 143.196 243.364 143.312 243.355 143.431C243.345 143.549 243.286 143.658 243.19 143.73L237.374 148.164C237.301 148.22 237.212 148.249 237.121 148.249L237.123 148.251ZM226.567 124.997C226.358 125.478 226.144 126.377 226.787 127.387C227.408 128.363 228.673 129.843 229.624 130.914C230.404 131.791 230.426 133.092 229.678 134.006C228.699 135.202 228.522 136.621 229.153 138.223C230.334 141.22 233.051 141.899 234.566 142.038C235.318 142.106 235.935 142.618 236.137 143.344C236.371 144.191 236.763 145.51 237.328 147.151L242.316 143.347C239.893 140.735 238.498 138.702 238.437 138.614C238.376 138.512 233.737 130.716 230.284 127.938C228.089 126.171 227.044 125.359 226.567 124.997Z" fill="black"/>
<path d="M325.483 125.024C325.483 125.024 310.739 117.886 290.151 125.687C272.917 132.217 293.135 179.551 289.9 210.863C289.9 210.863 317.007 214.953 324.608 204.625C328.618 199.176 325.485 125.024 325.485 125.024H325.483Z" fill="white"/>
<path d="M301.836 212.107C295.492 212.107 290.317 211.35 289.835 211.278C289.613 211.245 289.458 211.043 289.48 210.821C290.781 198.231 288.32 183.321 285.941 168.9C282.434 147.656 279.406 129.309 290.001 125.295C310.521 117.52 325.514 124.575 325.664 124.647C325.803 124.714 325.893 124.853 325.901 125.006C326.03 128.04 328.993 199.369 324.942 204.874C320.585 210.793 310.196 212.107 301.834 212.107H301.836ZM290.354 210.503C293.707 210.947 317.397 213.712 324.267 204.376C327.36 200.173 326.154 150.969 325.075 125.3C323.148 124.468 309.104 118.953 290.297 126.079C280.343 129.849 283.319 147.883 286.766 168.763C289.129 183.084 291.573 197.889 290.354 210.503Z" fill="black"/>
<path d="M269.734 144.071C269.734 144.071 278.687 131.188 287.582 126.025C288.639 125.411 290.285 124.738 292.393 124.116C296.008 132.992 301.545 149.457 298.8 161.672C295.547 176.153 296.483 228.394 296.91 246.196C279.214 245.809 274.593 245.406 274.593 245.406C272.361 233.136 282.086 161.337 282.086 161.337L269.734 144.071Z" fill="white"/>
<path d="M296.909 246.615C296.909 246.615 296.903 246.615 296.899 246.615C279.391 246.232 274.603 245.829 274.555 245.825C274.366 245.809 274.213 245.668 274.18 245.483C271.992 233.461 281.01 166.171 281.647 161.448L269.391 144.316C269.288 144.172 269.286 143.978 269.388 143.834C269.478 143.704 278.497 130.814 287.369 125.666C288.518 124.998 290.212 124.325 292.27 123.716C292.475 123.655 292.695 123.761 292.776 123.961C296.369 132.777 301.98 149.415 299.205 161.766C295.933 176.326 296.94 230.065 297.326 246.188C297.328 246.303 297.284 246.414 297.204 246.495C297.125 246.575 297.02 246.619 296.909 246.619V246.615ZM274.952 245.013C276.258 245.106 281.8 245.443 296.48 245.768C296.087 229.108 295.126 176.104 298.39 161.581C301.08 149.614 295.706 133.439 292.146 124.628C290.337 125.183 288.8 125.803 287.79 126.39C279.742 131.06 271.523 142.283 270.247 144.07L282.425 161.095C282.488 161.182 282.514 161.289 282.501 161.394C282.405 162.105 272.972 232.072 274.952 245.013Z" fill="black"/>
<path d="M305.806 167.942C307.055 152.318 316.087 132.891 321.177 123.009C325.413 123.797 329.786 125.049 334.151 126.921C352.271 134.689 345.842 161.12 345.842 161.12L333.542 159.244L333.496 174.69C333.451 189.389 334.473 204.071 336.548 218.622L341.957 244.82C340.302 239.418 313.998 243.124 302.148 244.245C304.16 214.919 304.4 185.502 305.804 167.944L305.806 167.942Z" fill="white"/>
<path d="M341.961 245.238C341.782 245.238 341.616 245.122 341.562 244.942C340.239 240.621 319.975 242.783 307.869 244.075C305.798 244.295 303.841 244.504 302.193 244.659C302.071 244.67 301.949 244.628 301.861 244.543C301.772 244.457 301.728 244.337 301.735 244.213C302.794 228.789 303.365 213.282 303.867 199.6C304.327 187.064 304.726 176.237 305.391 167.907C306.638 152.287 315.585 132.952 320.806 122.817C320.891 122.652 321.074 122.561 321.255 122.596C325.8 123.442 330.195 124.768 334.318 126.537C341.878 129.778 346.336 136.818 347.211 146.898C347.867 154.458 346.269 161.153 346.253 161.22C346.201 161.43 345.998 161.567 345.783 161.534L333.964 159.732L333.919 174.692C333.877 189.321 334.902 204.083 336.967 218.563L342.373 244.735C342.419 244.955 342.284 245.17 342.066 245.225C342.031 245.234 341.996 245.238 341.963 245.238H341.961ZM321.408 123.479C316.197 133.631 307.451 152.642 306.226 167.975C305.563 176.287 305.164 187.105 304.704 199.632C304.205 213.175 303.642 228.504 302.605 243.779C304.141 243.629 305.914 243.44 307.78 243.242C323.053 241.612 337.043 240.421 341.213 243.253L336.144 218.707C334.067 204.16 333.038 189.36 333.082 174.69L333.129 159.244C333.129 159.122 333.182 159.005 333.274 158.928C333.367 158.848 333.489 158.813 333.609 158.831L345.521 160.648C346.201 157.42 350.409 134.349 333.989 127.31C330.016 125.606 325.785 124.319 321.408 123.482V123.479Z" fill="black"/>
<path d="M284.893 227.384C284.673 227.384 284.488 227.212 284.475 226.988C284.462 226.756 284.64 226.559 284.871 226.546C285.421 226.514 285.894 226.264 286.317 225.782C288.61 223.16 288.318 215.113 288.207 213.125C287.043 213.271 283.869 213.534 280.529 212.642C280.306 212.583 280.173 212.353 280.234 212.13C280.293 211.906 280.524 211.774 280.745 211.832C284.673 212.881 288.486 212.239 288.525 212.231C288.641 212.211 288.759 212.241 288.854 212.313C288.946 212.385 289.005 212.494 289.014 212.611C289.048 213.036 289.787 223.084 286.947 226.333C286.376 226.986 285.693 227.339 284.917 227.382C284.909 227.382 284.9 227.382 284.893 227.382V227.384Z" fill="black"/>
<path d="M318.313 230.297C316.389 230.297 314.769 229.586 313.496 228.182C309.186 223.432 310.261 212.349 310.309 211.879C310.322 211.756 310.389 211.645 310.491 211.576C310.594 211.506 310.721 211.485 310.84 211.519C319.526 213.974 328.455 211.086 328.545 211.056C328.765 210.984 329.002 211.103 329.074 211.323C329.146 211.543 329.028 211.78 328.808 211.852C328.719 211.881 319.888 214.745 311.104 212.458C310.947 214.667 310.551 223.689 314.117 227.62C315.233 228.85 316.661 229.466 318.353 229.459C318.584 229.446 318.773 229.644 318.774 229.875C318.774 230.106 318.59 230.295 318.359 230.297C318.344 230.297 318.329 230.297 318.314 230.297H318.313Z" fill="black"/>
<path d="M234.594 147.66C237.997 157.312 247.029 172.357 264.548 173.123C270.633 173.389 276.56 167.342 284.585 161.339C284.585 161.339 276.183 136.03 275.625 136.718C273.005 139.944 266.451 149.256 260.729 149.412C252.255 149.641 248.178 144.643 243.799 140.007L234.596 147.662L234.594 147.66Z" fill="white"/>
<path d="M264.944 173.551C264.805 173.551 264.665 173.547 264.526 173.542C244.495 172.665 236.246 153.617 234.195 147.799C234.138 147.634 234.188 147.449 234.323 147.337L243.527 139.682C243.697 139.541 243.946 139.556 244.098 139.717C244.38 140.017 244.663 140.318 244.945 140.62C249.074 145.032 252.98 149.199 260.711 148.99C265.576 148.859 271.205 141.663 274.231 137.797C274.885 136.961 275.402 136.3 275.79 135.864C275.943 135.69 276.208 135.675 276.381 135.829C276.555 135.982 276.57 136.247 276.416 136.421C276.047 136.839 275.537 137.49 274.892 138.313C271.783 142.286 265.993 149.686 260.737 149.828C252.622 150.052 248.411 145.546 244.338 141.193C244.146 140.988 243.953 140.782 243.761 140.579L235.084 147.795C237.245 153.789 245.359 171.864 264.563 172.704C269.217 172.905 273.773 169.298 279.537 164.729C280.579 163.904 281.652 163.051 282.768 162.191C282.951 162.048 283.215 162.084 283.355 162.267C283.496 162.45 283.462 162.713 283.28 162.855C282.167 163.713 281.096 164.562 280.058 165.386C274.321 169.933 269.758 173.549 264.946 173.551H264.944Z" fill="black"/>
<path d="M284.451 180.157H307.521C309.075 180.157 310.209 178.684 309.814 177.178L301.255 144.604C300.981 143.561 300.039 142.834 298.962 142.834H275.891C274.338 142.834 273.203 144.306 273.599 145.812L282.158 178.386C282.431 179.43 283.373 180.157 284.451 180.157Z" fill="white"/>
<path d="M307.522 180.577H284.451C283.186 180.577 282.075 179.72 281.754 178.494L273.195 145.92C272.973 145.076 273.151 144.194 273.684 143.504C274.216 142.812 275.022 142.416 275.894 142.416H298.965C300.232 142.416 301.34 143.273 301.662 144.499L310.221 177.073C310.443 177.917 310.265 178.799 309.731 179.489C309.199 180.181 308.394 180.577 307.522 180.577ZM275.892 143.254C275.282 143.254 274.719 143.531 274.346 144.014C273.973 144.499 273.849 145.115 274.004 145.705L282.563 178.279C282.789 179.138 283.566 179.737 284.451 179.737H307.522C308.132 179.737 308.695 179.459 309.068 178.975C309.441 178.49 309.565 177.874 309.41 177.284L300.851 144.71C300.625 143.852 299.85 143.252 298.963 143.252H275.892V143.254Z" fill="black"/>
<path d="M313.726 162.038L310.744 160.837C309.551 160.356 308.632 159.37 308.248 158.14C308.091 157.639 307.91 157.014 307.707 156.24C306.907 153.199 304.544 151.388 303.631 152.639C303.085 153.39 304.455 155.671 304.189 157.169C303.731 159.738 299.168 157.846 298.414 157.556C296.7 156.895 296.408 156.348 295.087 155.482C294.106 154.838 292.835 155.68 293.027 156.84C293.38 158.985 294.247 161.723 296.36 163.042C299.741 165.155 301.452 165.225 303.168 165.353C304.136 165.425 305.067 165.747 305.882 166.276C307.119 167.08 309.122 168.359 311.566 169.837L313.728 162.036L313.726 162.038Z" fill="white"/>
<path d="M311.566 170.256C311.49 170.256 311.416 170.236 311.349 170.195C308.909 168.717 306.904 167.439 305.654 166.627C304.893 166.133 304.022 165.837 303.138 165.77L302.992 165.759C301.281 165.633 299.511 165.504 296.138 163.397C293.876 161.983 292.973 159.087 292.615 156.906C292.498 156.199 292.798 155.516 293.396 155.126C293.989 154.739 294.724 154.741 295.317 155.128C295.761 155.418 296.095 155.677 296.391 155.907C296.991 156.371 297.466 156.737 298.565 157.161L298.669 157.202C301.482 158.302 302.72 158.169 303.265 157.864C303.55 157.705 303.712 157.459 303.777 157.092C303.889 156.456 303.64 155.576 303.42 154.797C303.138 153.8 302.894 152.939 303.295 152.39C303.631 151.929 304.137 151.737 304.717 151.848C306.079 152.105 307.54 153.948 308.115 156.132C308.299 156.835 308.478 157.468 308.65 158.014C308.998 159.124 309.818 160.01 310.902 160.446L313.884 161.647C314.082 161.726 314.189 161.943 314.132 162.148L311.97 169.949C311.935 170.075 311.843 170.178 311.721 170.226C311.671 170.247 311.619 170.256 311.566 170.256ZM294.355 155.677C294.183 155.677 294.011 155.729 293.854 155.831C293.607 155.992 293.368 156.325 293.442 156.771C293.773 158.781 294.588 161.44 296.583 162.686C299.781 164.684 301.445 164.806 303.054 164.923L303.2 164.934C304.226 165.01 305.233 165.352 306.11 165.924C307.274 166.68 309.094 167.842 311.311 169.192L313.225 162.287L310.59 161.227C309.271 160.696 308.273 159.617 307.85 158.267C307.675 157.708 307.492 157.063 307.305 156.349C306.766 154.297 305.462 152.845 304.562 152.675C304.22 152.61 304.059 152.766 303.971 152.888C303.81 153.108 304.05 153.953 304.226 154.571C304.471 155.437 304.749 156.417 304.603 157.244C304.492 157.86 304.181 158.315 303.675 158.6C302.641 159.181 300.904 158.981 298.366 157.988L298.266 157.949C297.052 157.481 296.509 157.061 295.881 156.574C295.583 156.345 295.277 156.106 294.859 155.834C294.702 155.731 294.529 155.679 294.355 155.679V155.677Z" fill="black"/>
<path d="M310.072 170.449C319.099 175.912 334.155 184.116 339.007 181.304C345.225 177.699 346.943 153.427 346.943 151.975L328.112 148.02L327.224 157.158C326.989 159.169 325.238 160.652 323.217 160.547C320.033 160.382 318.87 160.414 313.641 159.119L310.07 170.447L310.072 170.449Z" fill="white"/>
<path d="M336.422 182.288C330.25 182.288 318.951 176.311 309.858 170.808C309.694 170.708 309.618 170.508 309.675 170.323L313.246 158.995C313.313 158.784 313.534 158.66 313.747 158.713C318.524 159.897 319.86 159.962 322.524 160.093L323.245 160.128C325.031 160.221 326.605 158.895 326.814 157.11L327.612 148.9C327.634 148.669 327.834 148.5 328.068 148.522C328.299 148.545 328.467 148.75 328.445 148.981L327.647 157.2C327.386 159.431 325.434 161.081 323.202 160.968L322.485 160.933C319.842 160.804 318.478 160.735 313.932 159.623L310.579 170.264C325.323 179.16 335.343 182.952 338.805 180.945C344.68 177.539 346.533 154.052 346.533 151.98C346.533 151.749 346.72 151.56 346.953 151.56C347.185 151.56 347.372 151.747 347.372 151.98C347.372 152.23 345.866 177.822 339.227 181.672C338.49 182.099 337.542 182.293 336.43 182.293L336.422 182.288Z" fill="black"/>
<path d="M303.551 110.236C303.464 110.279 303.403 110.362 303.392 110.46L302.202 120.603C301.962 122.044 302.202 123.692 300.541 124.449L298.694 125.203C297.888 125.533 297.916 126.685 298.738 126.974C300.92 127.738 304.439 128.724 308.075 128.735C311.668 128.746 314.778 127.344 316.627 126.274C317.357 125.853 317.209 124.756 316.394 124.536L316.086 124.452C314.706 124.079 313.823 122.332 313.63 120.914L312.173 106.492C312.152 106.296 311.944 106.179 311.766 106.265L303.551 110.236Z" fill="white"/>
<path d="M308.119 129.153C308.104 129.153 308.091 129.153 308.076 129.153C304.429 129.142 300.912 128.177 298.601 127.368C298.061 127.179 297.703 126.687 297.688 126.116C297.673 125.542 298.006 125.032 298.538 124.815L300.385 124.061C301.477 123.563 301.573 122.583 301.682 121.447C301.712 121.147 301.741 120.838 301.791 120.535L302.977 110.412C303.005 110.172 303.153 109.967 303.371 109.861L311.586 105.889C311.791 105.79 312.033 105.797 312.235 105.908C312.434 106.019 312.567 106.222 312.591 106.452L314.049 120.873C314.224 122.172 315.037 123.737 316.196 124.05L316.504 124.133C317.049 124.281 317.433 124.719 317.507 125.28C317.579 125.836 317.324 126.358 316.838 126.639C314.851 127.788 311.728 129.155 308.119 129.155V129.153ZM303.801 110.583L302.621 120.651C302.573 120.947 302.545 121.228 302.515 121.526C302.397 122.744 302.264 124.125 300.716 124.828L298.854 125.59C298.54 125.718 298.523 126.007 298.525 126.094C298.527 126.179 298.56 126.465 298.878 126.576C301.126 127.363 304.549 128.304 308.078 128.313C308.091 128.313 308.104 128.313 308.117 128.313C311.542 128.313 314.52 127.007 316.419 125.91C316.7 125.748 316.687 125.468 316.676 125.387C316.665 125.304 316.604 125.026 316.286 124.941L315.978 124.858C314.453 124.445 313.435 122.59 313.216 120.971L311.776 106.727L303.799 110.583H303.801Z" fill="black"/>
<path d="M293.777 92.1306C296.672 91.2464 293.721 95.1718 303.805 89.354C307.821 87.0361 306.871 92.6264 307.915 92.0289C311.769 89.8202 311.634 89.8905 313.79 89.9312C315.216 89.9571 316.696 92.2213 316.897 94.1322C317.163 96.6554 315.307 97.7745 314.789 103.367C314.425 107.294 315.272 109.421 313.953 110.302C312.619 111.193 311.054 109.486 309.522 110.348C307.54 111.463 308.865 115.054 307.169 117.089C306.099 118.373 303.169 119.558 297.716 118.369C296.832 118.177 296.206 117.376 296.23 116.467C296.262 115.304 296.31 113.833 296.474 112.433C297.252 105.759 299.086 103.846 297.911 102.453C296.108 100.318 291.863 102.826 290.616 101.015C289.319 99.136 289.816 93.3423 293.78 92.1306H293.777Z" fill="black"/>
<path d="M306.571 98.344L306.115 100.12C305.901 100.956 305.744 101.807 305.646 102.665C305.463 104.277 305.127 107.044 304.822 108.579C304.373 110.834 297.319 109.93 297.319 109.93L296.625 108.774L295.801 108.65C295.642 108.626 295.485 108.568 295.359 108.468C295.043 108.217 294.94 107.806 295.071 107.453C295.784 105.521 297.21 101.232 297.231 97.6855C297.231 97.6855 301.713 95.2844 306.571 98.3459V98.344Z" fill="white"/>
<path d="M300.332 110.545C298.976 110.545 297.748 110.407 297.266 110.346C297.138 110.329 297.026 110.255 296.959 110.146L296.366 109.158L295.736 109.064C295.49 109.027 295.269 108.934 295.095 108.795C294.646 108.438 294.478 107.839 294.676 107.306C295.311 105.59 296.789 101.216 296.809 97.6814C296.809 97.5279 296.894 97.3873 297.031 97.3152C297.223 97.2116 301.785 94.8345 306.791 97.9904C306.944 98.0865 307.018 98.2734 306.974 98.4491L306.52 100.225C306.311 101.039 306.157 101.875 306.061 102.713C305.886 104.265 305.542 107.101 305.232 108.66C304.925 110.199 302.472 110.543 300.331 110.543L300.332 110.545ZM297.574 109.537C300.332 109.863 304.162 109.755 304.413 108.498C304.718 106.968 305.056 104.158 305.232 102.619C305.332 101.742 305.492 100.867 305.71 100.016L306.089 98.5398C302.18 96.2293 298.555 97.5501 297.646 97.9496C297.561 101.429 296.251 105.466 295.464 107.595C295.392 107.789 295.455 108.005 295.62 108.137C295.679 108.185 295.764 108.216 295.864 108.233L296.687 108.357C296.811 108.375 296.92 108.448 296.985 108.555L297.574 109.535V109.537Z" fill="black"/>
<path d="M306.75 104.119C306.75 104.119 307.84 99.848 309.669 100.767C311.498 101.687 310.181 106.359 306.75 104.119Z" fill="white"/>
</svg>
