<svg width="248" height="56" viewBox="0 0 248 56" fill="none" xmlns="http://www.w3.org/2000/svg">
<g clip-path="url(#clip0_1784_6328)">
<path d="M29.316 15.2426C29.2082 18.0039 28.7771 19.8817 27.0526 21.0966C25.6515 22.2012 23.1725 22.2012 18.8614 22.2012H10.5624C6.14342 22.2012 3.77227 22.2012 2.37114 21.0966C0.107779 19.4398 0 16.6785 0 12.1499V10.1617C0 5.52268 0.107779 2.76134 2.26336 1.10454C3.66449 0 6.14342 0 10.4546 0H18.7536C23.1725 0 25.5437 0 26.9448 1.10454C28.5615 2.31953 28.9926 4.08678 29.2082 6.73767H22.6336C22.6336 5.30178 19.6158 4.97041 16.598 4.97041H12.7179C9.70013 4.85996 8.08344 4.97041 7.22121 5.85404C6.35897 6.62722 6.14342 7.95266 6.14342 10.2722V11.8185C6.14342 14.2485 6.35897 15.574 7.22121 16.3471C8.08344 17.1203 9.80791 17.2308 12.8257 17.2308H16.7058C19.7236 17.2308 22.8492 16.8994 22.8492 15.1322H29.316V15.2426Z" fill="black"/>
<path d="M45.5908 22.2012C44.8364 22.2012 44.1897 21.5385 44.1897 20.7653V15.9053C44.1897 15.1321 43.7586 13.9172 43.2197 13.3649L32.6573 1.10454C32.4418 0.883629 32.334 0.662722 32.334 0.552268C32.334 0.220907 32.5495 0.110454 33.0884 0.110454H38.8007C39.5552 0.110454 40.633 0.662722 41.0641 1.21499L46.5608 8.17357C46.7764 8.50493 47.0997 8.61539 47.4231 8.61539C47.7464 8.61539 48.0698 8.50493 48.2853 8.17357L53.8898 1.10454C54.3209 0.552268 55.3987 0 56.1532 0H61.5422C62.081 0 62.2966 0.220907 62.2966 0.552268C62.2966 0.662722 62.1888 0.883629 61.9733 1.10454L51.6265 13.4753C51.0876 14.0276 50.6565 15.2426 50.6565 16.0158V20.8757C50.6565 21.6489 50.0098 22.3116 49.2553 22.3116H45.5908V22.2012Z" fill="black"/>
<path d="M66.8269 22.2012C66.0725 22.2012 65.4258 21.5385 65.4258 20.7653V12.8126C65.4258 12.0394 66.0725 11.3767 66.8269 11.3767H81.5927C82.2393 11.3767 83.3171 11.3767 83.856 11.1558C85.0416 10.6036 85.1494 9.49901 85.1494 8.39448C85.1494 6.73767 84.7183 5.63314 82.9938 5.41223C82.5627 5.41223 82.1316 5.41223 81.7004 5.41223H66.8269C66.0725 5.41223 65.4258 4.74951 65.4258 3.97633V1.4359C65.4258 0.662722 66.0725 0 66.8269 0H82.4549C84.6105 0 87.5205 0 89.1372 1.21499C91.4006 2.76134 91.6161 5.63314 91.6161 8.17357C91.6161 15.6844 89.4605 16.789 82.5627 16.789H73.4014C72.647 16.789 72.0003 17.4517 72.0003 18.2249V20.8757C72.0003 21.6489 71.3536 22.3116 70.5992 22.3116H66.8269V22.2012Z" fill="black"/>
<path d="M96.1375 22.2012C95.383 22.2012 94.7363 21.5385 94.7363 20.7653V1.4359C94.7363 0.662722 95.383 0 96.1375 0H100.018C100.772 0 101.419 0.662722 101.419 1.4359V7.51085C101.419 8.28402 102.065 8.94675 102.82 8.94675H114.891C115.645 8.94675 116.292 8.28402 116.292 7.51085V1.4359C116.292 0.662722 116.939 0 117.693 0H121.466C122.22 0 122.867 0.662722 122.867 1.4359V20.7653C122.867 21.5385 122.22 22.2012 121.466 22.2012H117.693C116.939 22.2012 116.292 21.5385 116.292 20.7653V14.8008C116.292 14.0276 115.645 13.3649 114.891 13.3649H102.82C102.065 13.3649 101.419 14.0276 101.419 14.8008V20.7653C101.419 21.5385 100.772 22.2012 100.018 22.2012H96.1375Z" fill="black"/>
<path d="M152.725 20.7653C152.725 21.5385 152.078 22.2012 151.324 22.2012H134.079C131.6 22.2012 129.876 21.8698 128.582 21.2071C126.75 20.213 126.104 18.4458 126.104 16.1262V5.85404C126.104 3.97633 126.427 2.09862 128.582 0.994083C129.768 0.441815 131.492 0 134.079 0H151.324C152.078 0 152.725 0.662722 152.725 1.4359V3.53452C152.725 4.30769 152.078 4.97041 151.324 4.97041H135.48C133.864 4.97041 133.54 5.08087 132.894 5.30178C132.247 5.52268 131.924 6.1854 131.924 6.84813C131.924 7.51085 132.247 8.28402 132.894 8.61539C133.325 8.83629 134.079 8.83629 134.079 8.83629H151.324C152.078 8.83629 152.725 9.49901 152.725 10.2722V11.7081C152.725 12.4813 152.078 13.144 151.324 13.144H134.079C134.079 13.144 133.325 13.144 132.894 13.3649C132.139 13.6963 131.816 14.4694 131.816 15.3531C131.816 16.2367 132.139 17.1203 132.894 17.3412C133.325 17.4517 133.864 17.4517 135.48 17.4517H151.324C152.078 17.4517 152.725 18.1144 152.725 18.8876V20.7653Z" fill="black"/>
<path d="M169.001 12.5917C169.001 11.8185 169.647 11.1558 170.402 11.1558H173.312C174.928 11.1558 175.467 9.49901 175.467 8.50493C175.467 6.84813 175.036 5.52268 173.312 5.52268H157.253C156.498 5.52268 155.852 4.85996 155.852 4.08679V1.4359C155.852 0.662722 156.498 0 157.253 0H172.881C175.036 0 177.946 0 179.563 1.21499C180.856 2.09862 181.503 3.42406 181.826 4.97041C181.934 5.74359 182.042 6.95858 182.042 8.06312V8.61539C182.042 10.4931 181.826 12.3708 181.287 13.4753C180.21 16.0158 178.27 16.4576 175.791 16.6785L180.964 21.3176C181.18 21.5385 181.287 21.6489 181.287 21.8698C181.287 22.0907 181.072 22.3116 180.533 22.3116H176.437C175.683 22.3116 174.497 21.8698 173.958 21.3176L169.971 17.783C169.432 17.2308 168.893 16.1262 168.893 15.3531V12.5917H169.001Z" fill="black"/>
<path d="M214.484 10.1617V12.1499C214.484 16.6785 214.376 19.5503 212.22 21.2071C210.819 22.3116 208.34 22.3116 204.029 22.3116H195.73C191.311 22.3116 188.94 22.3116 187.539 21.2071C185.275 19.5503 185.275 16.6785 185.275 12.1499V10.1617C185.275 5.63314 185.383 2.76134 187.539 1.10454C188.94 0 191.419 0 195.73 0H204.029C208.448 0 210.819 0 212.22 1.10454C214.484 2.76134 214.484 5.52268 214.484 10.1617ZM208.34 10.2722C208.34 7.84221 208.232 6.51677 207.37 5.74359C206.508 4.97041 204.783 4.85996 201.766 4.85996H197.886C194.868 4.85996 193.143 4.97041 192.281 5.74359C191.419 6.51677 191.311 7.84221 191.203 10.2722V11.8185C191.203 14.2485 191.419 15.574 192.281 16.3471C193.143 17.1203 194.868 17.2308 197.886 17.2308H201.766C204.783 17.2308 206.508 17.1203 207.37 16.3471C208.232 15.574 208.34 14.2485 208.34 11.8185V10.2722Z" fill="black"/>
<path d="M240.456 22.2001C239.701 22.2001 238.624 21.7583 238.085 21.206L233.881 16.8983C233.558 16.6774 233.235 16.4565 232.911 16.4565C232.588 16.4565 232.157 16.567 231.941 16.8983L227.738 21.206C227.199 21.7583 226.121 22.2001 225.367 22.2001H218.577C218.146 22.2001 217.822 22.0896 217.822 21.7583C217.822 21.6478 217.93 21.4269 218.146 21.206L227.199 12.1488C227.522 11.9279 227.63 11.4861 227.63 11.1547C227.63 10.8234 227.522 10.3816 227.199 10.1607L218.146 1.10346C217.93 0.88255 217.822 0.661643 217.822 0.55119C217.822 0.330282 218.038 0.109375 218.577 0.109375H225.367C226.121 0.109375 227.199 0.551189 227.738 1.10346L231.941 5.41115C232.265 5.74251 232.588 5.85296 232.911 5.85296C233.235 5.85296 233.666 5.74251 233.881 5.41115L238.085 1.10346C238.624 0.551189 239.701 0.109375 240.456 0.109375H247.246C247.677 0.109375 248 0.219829 248 0.55119C248 0.661643 247.893 0.88255 247.677 1.10346L238.624 10.1607C238.3 10.492 238.193 10.8234 238.193 11.1547C238.193 11.4861 238.3 11.9279 238.624 12.1488L247.677 21.206C247.893 21.4269 248 21.6478 248 21.7583C248 21.9792 247.785 22.2001 247.246 22.2001H240.456Z" fill="black"/>
<path d="M97.9701 31.3688V35.3451H100.988V36.3392H97.9701V47.0532C97.9701 48.8204 98.6167 49.5936 100.126 49.5936C100.233 49.5936 101.096 49.5936 101.203 49.5936V50.5877C101.096 50.5877 100.233 50.5877 100.018 50.5877C97.8623 50.5877 96.8923 49.5936 96.8923 47.0532V36.3392H94.6289V35.3451H96.8923V31.3688H97.9701Z" fill="black"/>
<path d="M115.54 46.2789C115.001 48.8193 112.738 50.8075 109.504 50.8075C105.516 50.8075 102.93 47.9357 102.93 42.9653C102.93 38.2158 105.516 35.123 109.396 35.123C113.276 35.123 115.755 38.1053 115.755 42.5234V43.1862H104.007V43.2966C104.007 47.3834 106.163 49.9238 109.504 49.9238C112.199 49.9238 114.031 48.3775 114.462 46.3893H115.54V46.2789ZM104.007 42.1921H114.57C114.57 38.5471 112.414 36.1171 109.289 36.1171C106.271 36.1171 104.223 38.5471 104.007 42.1921Z" fill="black"/>
<path d="M129.55 39.9836C129.118 37.7745 127.286 36.2282 124.7 36.2282C121.358 36.2282 119.311 38.879 119.311 43.0763C119.311 47.2735 121.466 49.9244 124.7 49.9244C127.178 49.9244 129.118 48.3781 129.55 46.2794H130.627C130.196 49.0408 127.825 51.0289 124.7 51.0289C120.712 51.0289 118.125 48.0467 118.125 43.1867C118.125 38.4372 120.712 35.3445 124.7 35.3445C127.933 35.3445 130.196 37.4431 130.627 40.2045H129.55V39.9836Z" fill="black"/>
<path d="M133.754 29.4902H134.832V38.6579C135.478 36.5593 137.418 35.1234 140.005 35.1234C143.238 35.1234 145.394 37.3324 145.394 40.7565V50.5869H144.316V40.867C144.316 37.9952 142.484 36.1175 139.79 36.1175C136.88 36.1175 134.832 38.3265 134.832 41.4192V50.4764H133.754V29.4902Z" fill="black"/>
<path d="M149.273 35.344H150.351V38.6576C150.998 36.5589 152.938 35.123 155.525 35.123C158.758 35.123 160.914 37.3321 160.914 40.7562V50.5866H159.836V40.8666C159.836 37.8844 158.004 36.1171 155.309 36.1171C152.399 36.1171 150.459 38.3262 150.459 41.4189V50.4761H149.381V35.344H149.273Z" fill="black"/>
<path d="M163.934 42.9653C163.934 38.1053 166.628 35.123 170.508 35.123C174.496 35.123 177.083 38.1053 177.083 42.9653C177.083 47.8252 174.388 50.8075 170.508 50.8075C166.628 50.8075 163.934 47.8252 163.934 42.9653ZM176.113 42.9653C176.113 38.768 173.849 36.1171 170.616 36.1171C167.275 36.1171 165.119 38.6576 165.119 42.9653C165.119 47.1625 167.275 49.8134 170.616 49.8134C173.849 49.8134 176.113 47.1625 176.113 42.9653Z" fill="black"/>
<path d="M180.422 29.4902H181.5V50.5869H180.422V29.4902Z" fill="black"/>
<path d="M184.838 42.9653C184.838 38.1053 187.532 35.123 191.412 35.123C195.4 35.123 197.987 38.1053 197.987 42.9653C197.987 47.8252 195.292 50.8075 191.412 50.8075C187.532 50.8075 184.838 47.8252 184.838 42.9653ZM196.909 42.9653C196.909 38.768 194.646 36.1171 191.412 36.1171C188.071 36.1171 185.916 38.6576 185.916 42.9653C185.916 47.1625 188.071 49.8134 191.412 49.8134C194.754 49.8134 196.909 47.1625 196.909 42.9653Z" fill="black"/>
<path d="M201.331 52.134H202.516C203.055 53.7908 204.78 55.0058 207.258 55.0058C210.384 55.0058 212.324 53.1281 212.324 50.3667V46.5008C211.677 48.8204 209.522 50.6981 206.827 50.6981C203.055 50.6981 200.576 47.6054 200.576 42.8559C200.576 38.2168 203.163 35.0137 206.827 35.0137C209.522 35.0137 211.677 36.8914 212.432 39.3214V35.345H213.51V50.3667C213.51 53.7908 211.139 55.9999 207.366 55.9999C203.917 55.9999 201.654 54.3431 201.331 52.134ZM212.216 42.9663C212.216 38.99 209.953 36.1182 206.827 36.1182C203.702 36.1182 201.546 38.8796 201.546 42.9663C201.546 47.0531 203.702 49.704 206.827 49.704C210.061 49.704 212.216 46.9427 212.216 42.9663Z" fill="black"/>
<path d="M217.066 30.7047C217.066 30.1525 217.498 29.8211 217.929 29.8211C218.36 29.8211 218.791 30.1525 218.791 30.7047C218.791 31.257 218.36 31.5883 217.929 31.5883C217.498 31.5883 217.066 31.1465 217.066 30.7047ZM217.39 35.3438H218.468V50.5864H217.39V35.3438Z" fill="black"/>
<path d="M234.417 46.2789C233.878 48.8193 231.615 50.8075 228.381 50.8075C224.393 50.8075 221.807 47.9357 221.807 42.9653C221.807 38.2158 224.393 35.123 228.273 35.123C232.153 35.123 234.632 38.1053 234.632 42.5234V43.1862H222.884V43.2966C222.884 47.3834 225.04 49.9238 228.381 49.9238C231.076 49.9238 232.908 48.3775 233.339 46.3893H234.417V46.2789ZM222.884 42.1921H233.447C233.447 38.5471 231.291 36.1171 228.166 36.1171C225.148 36.1171 222.992 38.5471 222.884 42.1921Z" fill="black"/>
<path d="M242.504 35.123C245.521 35.123 247.569 36.8903 247.785 39.7621H246.707C246.384 37.553 244.767 36.1171 242.396 36.1171C240.133 36.1171 238.408 37.4426 238.408 39.2098C238.408 40.6457 239.378 41.5294 241.749 42.0816L243.797 42.6339C246.707 43.2966 247.893 44.5116 247.893 46.6102C247.893 49.1507 245.629 50.8075 242.396 50.8075C239.27 50.8075 237.007 48.9298 236.684 46.2789H237.761C238.085 48.3775 239.917 49.8134 242.396 49.8134C244.983 49.8134 246.707 48.4879 246.707 46.6102C246.707 44.9534 245.737 44.1802 243.366 43.5175L241.21 42.9653C238.408 42.3025 237.115 41.0875 237.115 39.0994C237.438 36.7799 239.486 35.123 242.504 35.123Z" fill="black"/>
</g>
<defs>
<clipPath id="clip0_1784_6328">
<rect width="248" height="56" fill="white"/>
</clipPath>
</defs>
</svg>
