<svg width="53" height="56" viewBox="0 0 53 56" fill="none" xmlns="http://www.w3.org/2000/svg">
<path d="M25.9571 0L0 9.13178L4.10191 43.1279L25.9845 55.1508L47.9801 42.965L52.0804 8.97006L25.9571 0Z" fill="#B3B3B3"/>
<path d="M49.4914 10.935L25.8965 2.8916V52.2784L45.6701 41.3387L49.4914 10.935Z" fill="#A6120D"/>
<path d="M2.91406 11.0797L6.42908 41.4839L25.8973 52.2783V2.89062L2.91427 11.0795L2.91406 11.0797Z" fill="#DD1B16"/>
<path d="M32.3913 29.1821L25.8963 32.2183H19.0508L15.8329 40.2643L9.84766 40.3749L25.8963 4.68457L32.3913 29.1823V29.1821ZM31.7634 27.6535L25.9395 16.1279L21.1623 27.4552H25.8961L31.7634 27.6537V27.6535Z" fill="#F2F2F2"/>
<path d="M25.8965 4.68457L25.9395 16.1281L31.36 27.4642H25.9088L25.8965 32.2111L33.4344 32.2183L36.9574 40.3763L42.6844 40.4823L25.8965 4.68457Z" fill="#B3B3B3"/>
</svg>
