<svg width="55" height="55" viewBox="0 0 55 55" fill="none" xmlns="http://www.w3.org/2000/svg">
<circle cx="27.5" cy="27.5" r="27.5" fill="#F8761F"/>
<path d="M42.8215 27.1005C42.0088 25.7286 40.8657 24.6288 39.4366 23.8008C38.3686 23.1908 37.2612 22.8036 36.0133 22.6374V18.2783C37.2612 17.7584 38.0357 16.6077 38.0357 15.2652C38.0357 13.4353 36.5402 11.9525 34.6768 11.9525C32.8119 11.9525 31.2902 13.4353 31.2902 15.2652C31.2902 16.6077 32.02 17.7584 33.2679 18.2783V22.6393C32.2696 22.7809 31.2343 23.0863 30.2889 23.5555C28.3578 22.1165 22.0259 17.3957 18.3218 14.6385C18.4096 14.3277 18.4773 14.0074 18.4773 13.6695C18.4773 11.6427 16.8046 10 14.7383 10C12.672 10 11 11.6427 11 13.6695C11 15.6959 12.6737 17.3391 14.74 17.3391C15.4448 17.3391 16.0968 17.1369 16.6593 16.8043L17.441 17.3862L28.1821 24.9798C27.6143 25.4913 27.0854 26.0732 26.6624 26.7261C25.8051 28.0571 25.2812 29.5215 25.2812 31.1189V31.4522C25.2812 32.5736 25.4983 33.6322 25.8682 34.6268C26.1939 35.4951 26.6701 36.2847 27.2599 36.9985L23.6951 40.5049C23.1785 40.3162 22.6174 40.2775 22.0789 40.3933C21.5405 40.5092 21.0474 40.7748 20.6587 41.1582C20.3895 41.421 20.1762 41.7336 20.031 42.0779C19.8859 42.4222 19.8118 42.7913 19.8131 43.1639C19.8133 43.9214 20.1141 44.6333 20.6601 45.1688C20.9278 45.4331 21.2463 45.6427 21.5971 45.7854C21.9479 45.928 22.324 46.001 22.7037 46C23.0836 46.0009 23.4598 45.928 23.8108 45.7853C24.1617 45.6426 24.4803 45.4331 24.7481 45.1688C25.0171 44.906 25.2303 44.5935 25.3756 44.2494C25.5208 43.9053 25.5951 43.5364 25.5942 43.1639C25.5942 42.8708 25.548 42.5847 25.4612 42.3129L29.1458 38.6971C29.6509 39.0394 30.1965 39.3277 30.783 39.5762C31.9399 40.067 33.2167 40.366 34.6141 40.366H34.8702C36.4151 40.366 37.8725 40.01 39.2424 39.2816C40.686 38.512 41.8159 37.4594 42.6695 36.1157C43.5275 34.7683 44 33.2796 44 31.6418V31.56C44 29.9488 43.6199 28.4624 42.8215 27.1005ZM38.3195 34.6855C37.3194 35.776 36.1698 36.4478 34.8702 36.4478H34.6561C33.9138 36.4478 33.1878 36.2465 32.477 35.8804C31.6758 35.4773 31.0668 34.9023 30.5684 34.1742C30.0532 33.4596 29.7737 32.6794 29.7737 31.8521V31.6009C29.7737 30.7876 29.9327 30.0164 30.3335 29.2881C30.7621 28.492 31.3409 27.8729 32.1106 27.3807C32.8663 26.8919 33.6735 26.6521 34.5725 26.6521H34.6561C35.4712 26.6521 36.2429 26.8098 36.9712 27.1754C37.7132 27.5653 38.3195 28.098 38.7894 28.7986C39.2459 29.4995 39.5175 30.2554 39.6048 31.079C39.6186 31.2502 39.6255 31.4255 39.6255 31.593C39.6255 32.7107 39.1903 33.7459 38.3195 34.6855Z" fill="white"/>
</svg>
