<svg width="55" height="55" viewBox="0 0 55 55" fill="none" xmlns="http://www.w3.org/2000/svg">
<circle cx="27.5" cy="27.5" r="27.5" fill="#EE4323"/>
<path d="M22.686 43.9979C20.7419 43.1685 18.9227 41.0606 18.9183 38.9037C18.913 36.5522 20.423 34.5558 22.3009 33.2438C22.0752 34.0856 21.952 34.8557 22.5114 35.6087C23.0313 36.3088 23.942 36.649 24.8019 36.4643C26.8112 36.0302 26.9034 33.8502 25.7122 32.5801C24.5345 31.3224 23.3952 29.9017 23.8435 28.0777C24.0679 27.1634 24.6367 26.3069 25.3573 25.6947C24.8034 27.1314 26.3774 28.5481 27.4145 29.2539C29.2135 30.4783 31.1873 31.4036 32.8414 32.8389C34.5814 34.3473 35.8662 36.3869 35.6068 38.7525C35.3256 41.3165 33.2612 43.0997 30.9457 44C35.8388 42.9341 40.8947 39.1861 40.9982 33.8303C41.084 29.424 38.0214 26.033 34.2276 24.0917L34.0293 23.9849C34.1335 24.2342 34.1676 24.4464 34.1636 24.6362C34.1988 24.4944 34.2201 24.3496 34.2272 24.2038C34.2262 24.3802 34.2029 24.5558 34.1576 24.7264L34.1636 24.6362C34.1073 24.8701 34.0124 25.0933 33.8827 25.2969L33.9384 25.2378C33.1815 26.4768 31.1325 26.7459 30.1202 25.4629C28.493 23.3992 30.1543 21.1742 30.3867 18.9889C30.6777 16.25 28.9374 13.5911 26.7796 12C27.968 13.8974 26.4023 16.4077 25.1496 17.8111C23.935 19.1715 22.4577 20.3073 21.1168 21.5433C19.6764 22.8709 18.2916 24.2694 17.1077 25.8275C14.7397 28.9462 13.2901 32.8686 14.3554 36.7594C15.42 40.6475 18.8325 43.1225 22.6861 43.9977L22.686 43.9979Z" fill="white"/>
</svg>
