<svg width="54" height="61" viewBox="0 0 54 61" fill="none" xmlns="http://www.w3.org/2000/svg">
<path d="M46.4683 11.7473C46.4266 11.4441 46.161 11.2763 45.9414 11.2578C45.7223 11.2395 41.0849 10.8958 41.0849 10.8958C41.0849 10.8958 37.8643 7.69834 37.5108 7.34443C37.1571 6.99073 36.4663 7.09831 36.1981 7.17724C36.1587 7.18887 35.4945 7.39386 34.3958 7.73385C33.3199 4.63799 31.4212 1.79301 28.0809 1.79301C27.9887 1.79301 27.8938 1.79675 27.7988 1.80215C26.8489 0.545816 25.6721 0 24.6556 0C16.8744 0 13.1569 9.72729 11.9913 14.6704C8.96776 15.6073 6.8198 16.2733 6.54544 16.3595C4.85772 16.8889 4.80435 16.9421 4.58274 18.5324C4.41596 19.7364 0 53.8871 0 53.8871L34.4101 60.3343L53.0547 56.3009C53.0547 56.3009 46.5095 12.0505 46.4683 11.7473ZM32.4939 8.32204L29.5823 9.22322C29.5833 9.01802 29.5844 8.81614 29.5844 8.59536C29.5844 6.6713 29.3173 5.12212 28.8888 3.89403C30.61 4.11003 31.7562 6.06837 32.4939 8.32204ZM26.7537 4.27556C27.2323 5.47457 27.5434 7.19531 27.5434 9.51731C27.5434 9.63611 27.5423 9.74473 27.5413 9.8546C25.6478 10.4411 23.5902 11.0779 21.528 11.7168C22.6859 7.24806 24.8563 5.08972 26.7537 4.27556ZM24.4419 2.0871C24.7777 2.0871 25.1161 2.20113 25.4399 2.42398C22.9461 3.59745 20.2731 6.55291 19.1443 12.4549L14.391 13.927C15.7132 9.4253 18.8529 2.0871 24.4419 2.0871Z" fill="#95BF46"/>
<path d="M45.9418 11.2578C45.7226 11.2395 41.0853 10.8958 41.0853 10.8958C41.0853 10.8958 37.8646 7.69837 37.5111 7.34447C37.3788 7.21279 37.2004 7.14529 37.0139 7.11621L34.4121 60.3339L53.055 56.301C53.055 56.301 46.5098 12.0506 46.4687 11.7473C46.4269 11.4441 46.1613 11.2763 45.9418 11.2578Z" fill="#5E8E3E"/>
<path d="M28.0796 21.5592L25.7806 28.3977C25.7806 28.3977 23.7664 27.3226 21.2974 27.3226C17.6777 27.3226 17.4956 29.5942 17.4956 30.1666C17.4956 33.2899 25.6371 34.4866 25.6371 41.8024C25.6371 47.5581 21.9865 51.2644 17.0642 51.2644C11.1574 51.2644 8.13672 47.5883 8.13672 47.5883L9.7183 42.3627C9.7183 42.3627 12.8233 45.0285 15.4433 45.0285C17.1554 45.0285 17.8518 43.6805 17.8518 42.6956C17.8518 38.6215 11.1724 38.4398 11.1724 31.7453C11.1724 26.1108 15.2165 20.6582 23.3801 20.6582C26.5256 20.6582 28.0796 21.5592 28.0796 21.5592Z" fill="white"/>
</svg>
