<svg width="49" height="41" viewBox="0 0 49 41" fill="none" xmlns="http://www.w3.org/2000/svg">
<path d="M45.4644 0H2.7573C1.24445 0 0 1.24445 0 2.7573V37.4632C0 38.976 1.24445 40.2204 2.7573 40.2204H45.4644C46.9772 40.2204 48.2217 38.976 48.2217 37.4632V2.7573C48.2217 1.24445 46.9772 0 45.4644 0ZM42.8537 2.65016C43.819 2.65016 44.6129 3.44408 44.6129 4.40942C44.6129 5.37476 43.819 6.16868 42.8537 6.16868C41.8884 6.16868 41.0944 5.37476 41.0944 4.40942C41.0944 3.44408 41.8884 2.65016 42.8537 2.65016ZM36.5779 2.65016C37.5432 2.65016 38.3371 3.44408 38.3371 4.40942C38.3371 5.37476 37.5432 6.16868 36.5779 6.16868C35.6125 6.16868 34.8186 5.37476 34.8186 4.40942C34.8186 3.44408 35.6125 2.65016 36.5779 2.65016ZM30.3021 2.65016C31.2674 2.65016 32.0613 3.44408 32.0613 4.40942C32.0613 5.37476 31.2674 6.16868 30.3021 6.16868C29.3367 6.16868 28.5428 5.37476 28.5428 4.40942C28.5428 3.44408 29.3367 2.65016 30.3021 2.65016ZM44.6806 36.6512H3.51851V8.54255H44.6806V36.6512Z" fill="#394C60"/>
<path d="M16.3529 33.6629C16.6357 33.1934 17.0642 32.8291 17.5731 32.6255C18.0821 32.4219 18.6436 32.3902 19.1722 32.5352C19.4145 32.6193 19.6712 32.6538 19.9271 32.6366C20.183 32.6194 20.4328 32.5509 20.6617 32.4351C20.8906 32.3194 21.0938 32.1588 21.2593 31.9628C21.4248 31.7669 21.5492 31.5397 21.625 31.2947C21.809 30.8004 21.7943 30.2541 21.584 29.7705C21.3737 29.2868 20.9842 28.9035 20.4973 28.7009C20.0188 28.4828 19.6263 28.1119 19.3813 27.6465C19.1364 27.1811 19.0529 26.6476 19.144 26.1297C19.2286 25.5894 19.5002 25.0959 19.9113 24.7352C20.3224 24.3746 20.8471 24.1696 21.3938 24.1562C21.93 24.1448 22.4406 23.9245 22.8166 23.5421C23.1927 23.1598 23.4045 22.6456 23.4068 22.1093C23.4043 21.5673 23.1879 21.0481 22.8045 20.6648C22.4212 20.2815 21.9021 20.065 21.36 20.0625H21.3262C20.7771 20.0463 20.2497 19.8446 19.8299 19.4903C19.4101 19.136 19.1226 18.6501 19.0143 18.1115C18.9529 17.7855 18.9529 17.4508 19.0143 17.1248C19.0719 16.7645 19.2144 16.4232 19.4301 16.129C19.6458 15.8348 19.9285 15.5963 20.2548 15.4332C20.7197 15.1816 21.0699 14.7606 21.2326 14.2577C21.3954 13.7548 21.3582 13.2085 21.1288 12.7323C20.955 12.2286 20.5884 11.8144 20.1095 11.5808C19.6305 11.3472 19.0785 11.3131 18.5745 11.4861C18.0648 11.6902 17.4992 11.7061 16.9788 11.5312C16.5315 11.33 16.1432 11.0174 15.8511 10.6234C15.6299 10.3285 15.4734 9.99025 15.3918 9.63076C15.3101 9.27128 15.3053 8.89862 15.3774 8.53711H5.98342C10.3421 10.8771 14.4921 15.5798 14.5936 21.8218C14.7064 28.5881 11.1259 34.052 5.85938 36.6458H16.4713C16.1182 36.2347 15.9143 35.7164 15.8928 35.1749C15.8713 34.6335 16.0334 34.1006 16.3529 33.6629Z" fill="#3C9BD6"/>
<path d="M29.6194 11.2493C30.0433 11.5994 30.3341 12.0846 30.4429 12.6235C30.5517 13.1625 30.472 13.7224 30.2171 14.2096C30.008 14.7172 29.6385 15.1424 29.1651 15.4204C28.6916 15.6983 28.1403 15.8137 27.5951 15.7489C27.3413 15.7005 27.0804 15.7039 26.8279 15.7589C26.5755 15.8139 26.3368 15.9194 26.1261 16.0689C25.9154 16.2185 25.7372 16.4091 25.602 16.6293C25.4669 16.8495 25.3776 17.0948 25.3396 17.3503C25.2308 17.8638 25.3242 18.3996 25.6005 18.846C25.8767 19.2924 26.3145 19.615 26.8226 19.7467C27.3295 19.8883 27.7747 20.1946 28.0882 20.6173C28.4017 21.04 28.5654 21.555 28.5537 22.0811C28.5461 22.6143 28.3562 23.1289 28.0157 23.5392C27.6751 23.9495 27.2043 24.2309 26.6816 24.3366C26.2061 24.4195 25.7749 24.6673 25.4639 25.0365C25.1528 25.4056 24.9816 25.8725 24.9805 26.3552C24.983 26.8976 25.1996 27.417 25.5831 27.8006C25.9666 28.1841 26.486 28.4007 27.0284 28.4032C27.1446 28.4032 27.2607 28.3936 27.3752 28.3739C27.9201 28.3059 28.4719 28.4243 28.9408 28.71C29.4098 28.9957 29.7682 29.4317 29.9577 29.947C30.0665 30.2605 30.1161 30.591 30.1043 30.9225C30.105 31.2897 30.0178 31.6517 29.8501 31.9784C29.6823 32.305 29.4389 32.5868 29.1401 32.8002C28.7144 33.1202 28.4294 33.5929 28.3453 34.1188C28.2612 34.6447 28.3844 35.1827 28.689 35.6195C28.9672 36.0528 29.3567 36.4033 29.8167 36.6345H42.3684C38.3762 34.6553 34.666 30.9338 33.7581 25.6391C32.4725 18.1341 36.0136 11.5933 41.9624 8.53711H29.1683C28.8836 8.9615 28.7717 9.47861 28.8556 9.98273C28.9394 10.4868 29.2126 10.9399 29.6194 11.2493Z" fill="#E74F38"/>
<path d="M33.2337 37.0459H32.8672C32.9867 37.0809 33.1142 37.0809 33.2337 37.0459Z" fill="#3C9BD6"/>
</svg>
