<svg width="55" height="55" viewBox="0 0 55 55" fill="none" xmlns="http://www.w3.org/2000/svg">
<circle cx="27.5" cy="27.5" r="27.5" fill="#21759B"/>
<path d="M27.0003 48C15.9169 48 6.91699 39.1664 7.00058 28C7.08417 16.8336 15.5005 8 27.0003 8C38.5009 8 47 17 47 28C47 39 38.0837 48 27.0003 48ZM32.9166 44.9164L27.2503 29.6664L21.9168 45.25C25.8339 46.1672 28.5003 46.4164 32.9166 44.9164ZM19.084 44.0836L10.5841 20.8336C9.41695 23.3336 9.16773 25.4172 9.00055 28C9.08414 34.8328 12.9169 41.0828 19.084 44.0836ZM44.9172 28C45 23.5836 43.0008 20.0836 42.8337 19.5836C43.0008 23.0008 42.5001 24.75 41.9173 26.6672L36.0837 43.4172C43.4172 39 44.8328 32.4164 45 28H44.9172ZM26.4175 27.25L23.5839 19.5L21.5004 19.3336C20.6676 18.75 21.1668 17.8336 21.7504 17.8336C25.5003 18.0836 27.5831 18.0836 31.3338 17.8336C32.251 17.8336 32.5002 19.1672 31.4166 19.3336L29.4167 19.5L35.9158 38.6664L38.9986 28.1664C39.1657 23.5836 37.915 23.0836 36.2486 19.75C34.915 17.1664 36.3322 14.6664 38.9157 14.5836C36.8314 12.5836 32.5822 10.0836 26.9987 10C21.4152 9.91641 15.4989 12.75 11.9989 18.0836L18.166 17.9172C18.916 18.2508 18.5824 19.3336 18.166 19.4172L15.9997 19.5836L22.4996 39.0836L26.4175 27.25Z" fill="white"/>
</svg>
