<svg width="49" height="55" viewBox="0 0 49 55" fill="none" xmlns="http://www.w3.org/2000/svg">
<path d="M25.5165 0.346136C25.1131 0.114182 24.6675 6.91236e-06 24.2172 6.91236e-06C23.7609 -0.00104671 23.3124 0.118368 22.9172 0.346136L1.3001 12.7551C0.492081 13.2196 0.000762939 14.115 0.000762939 15.0464V39.9503C-0.000171661 40.4061 0.119488 40.8541 0.347641 41.2489C0.57579 41.6437 0.904346 41.9715 1.3001 42.1989L22.9172 54.6506C23.312 54.8794 23.7604 55 24.2169 55C24.6734 55 25.1218 54.8794 25.5165 54.6506L47.1337 42.1989C47.9417 41.7326 48.4336 40.8817 48.4336 39.9503V15.0464C48.4336 14.1162 47.9423 13.2196 47.1337 12.7551L25.5165 0.346136Z" fill="#83CD29"/>
<path d="M24.2252 6.56738C23.6387 6.56738 23.0683 6.68813 22.5634 6.97286L6.588 16.1678C5.55418 16.7617 4.92578 17.8828 4.92578 19.0757V37.4323C4.92578 38.6243 5.55418 39.744 6.588 40.3393L10.7601 42.7397C12.7872 43.7354 13.5344 43.7198 14.4569 43.7198C17.458 43.7198 19.1716 41.9048 19.1716 38.7507V20.6305C19.1716 20.3744 18.9491 20.1912 18.6968 20.1912H16.6957C16.4392 20.1912 16.221 20.3744 16.221 20.6305V38.7507C16.221 40.1485 14.7596 41.5548 12.3883 40.3731L8.04657 37.8378C7.89288 37.7546 7.77504 37.6076 7.77504 37.4323V19.0753C7.77504 18.9014 7.89147 18.7243 8.04657 18.636L23.988 9.47529C24.0601 9.43334 24.142 9.41124 24.2254 9.41124C24.3088 9.41124 24.3907 9.43334 24.4628 9.47529L40.4047 18.6364C40.5565 18.7276 40.6762 18.8963 40.6762 19.0762V37.4328C40.6762 37.608 40.5876 37.7875 40.4387 37.8721L24.4628 47.0332C24.326 47.1145 24.1375 47.1145 23.988 47.0332L19.8839 44.5994C19.8214 44.5656 19.7515 44.548 19.6805 44.548C19.6094 44.548 19.5395 44.5656 19.477 44.5994C18.3442 45.2393 18.1311 45.3136 17.0686 45.681C16.8069 45.7722 16.4095 45.9136 17.2043 46.3576L22.5634 49.5009C23.0687 49.7914 23.6423 49.9432 24.2256 49.9407C24.8089 49.9443 25.3826 49.7926 25.8874 49.5014L41.8633 40.3397C42.8971 39.7407 43.525 38.6248 43.525 37.4328V19.0757C43.525 17.8833 42.8971 16.7641 41.8633 16.1688L25.8874 6.9738C25.3867 6.6886 24.8126 6.56785 24.2256 6.56785L24.2252 6.56738Z" fill="white"/>
<path d="M28.5002 19.6846C23.9511 19.6846 21.2418 21.6142 21.2418 24.8233C21.2418 28.304 23.9308 29.2606 28.2971 29.691C33.5204 30.2008 33.9272 30.9652 33.9272 31.9899C33.9272 33.7674 32.5054 34.5253 29.1452 34.5253C24.9227 34.5253 23.9949 33.4747 23.6842 31.3815C23.6475 31.1569 23.4735 30.9755 23.243 30.9755H21.1739C20.9194 30.9755 20.6992 31.1945 20.6992 31.4491C20.6992 34.1287 22.1616 37.2974 29.1452 37.2974C34.2002 37.2974 37.1159 35.3198 37.1159 31.8546C37.1159 28.42 34.7607 27.4977 29.857 26.8517C24.9024 26.1981 24.43 25.8781 24.43 24.7218C24.43 23.7671 24.8307 22.49 28.5002 22.49C31.7785 22.49 32.99 23.1948 33.4864 25.3979C33.5298 25.6047 33.7127 25.7696 33.9272 25.7696H35.9967C36.124 25.7696 36.2475 25.6916 36.3357 25.6005C36.4224 25.5032 36.4837 25.3937 36.4715 25.2626C36.1509 21.4691 33.6128 19.6846 28.5002 19.6846Z" fill="white"/>
</svg>
