<svg width="77" height="53" viewBox="0 0 77 53" fill="none" xmlns="http://www.w3.org/2000/svg">
<path d="M76.6911 24.7639C76.142 24.2119 69.0947 15.287 67.9049 13.8149C66.6236 12.3427 66.0744 12.6188 65.2507 12.7108C64.427 12.8028 55.5493 14.3669 54.5425 14.4589C53.5358 14.6429 52.8951 15.011 53.5358 15.9311C54.0849 16.7591 59.9424 25.0399 61.2237 26.9721L37.8854 32.5847L19.3977 1.39367C18.6655 0.289564 18.4825 -0.0784718 16.8351 0.013537C15.1877 0.105546 2.28293 1.20965 1.3677 1.20965C0.452472 1.30166 -0.554281 1.6697 0.360949 3.87791C1.27618 6.08612 15.9199 37.7372 16.2859 38.6573C16.652 39.5773 17.7503 41.0495 20.2214 40.4974C22.7841 39.8534 31.5703 37.5532 36.421 36.265C38.9836 40.8655 44.1089 50.2504 45.1157 51.6305C46.397 53.4707 47.3122 53.1026 49.2342 52.5506C50.7901 52.0905 73.2132 43.9938 74.22 43.5337C75.2267 43.0737 75.8674 42.7977 75.1352 41.7856C74.5861 41.0495 68.7286 33.0447 65.6168 28.9043C67.7219 28.3523 75.3183 26.3281 76.142 26.052C77.0572 25.776 77.2402 25.316 76.6911 24.7639ZM34.316 33.5048C34.0414 33.5968 20.9536 36.7251 20.313 36.9091C19.5808 37.0931 19.5808 37.0011 19.5808 36.7251C19.3977 36.449 4.02187 4.42996 3.7473 4.06193C3.56425 3.69389 3.56425 3.32586 3.7473 3.32586C3.93034 3.32586 16.1029 2.22175 16.469 2.22175C16.9266 2.22175 16.8351 2.31376 17.0181 2.58979C17.0181 2.58979 34.1329 32.3086 34.4075 32.7687C34.7736 33.2287 34.5905 33.4128 34.316 33.5048ZM71.1082 40.4054C71.2912 40.7735 71.5658 40.9575 70.8336 41.1415C70.193 41.4175 48.7766 48.6862 48.319 48.8702C47.8614 49.0543 47.5868 49.1463 47.0377 48.3182C46.4885 47.4901 39.5328 35.4369 39.5328 35.4369L62.322 29.4564C62.8711 29.2724 63.0542 29.1803 63.4203 29.7324C63.7864 30.3765 70.9252 40.1294 71.1082 40.4054ZM72.5726 24.2119C72.0234 24.3039 63.6948 26.4201 63.6948 26.4201L56.8306 17.0352C56.6476 16.7591 56.4645 16.4831 56.9221 16.3911C57.3798 16.2991 65.1592 14.919 65.5253 14.827C65.8914 14.735 66.166 14.6429 66.6236 15.287C67.0812 15.8391 72.9387 23.3838 73.2132 23.6598C73.4878 23.9358 73.1217 24.1199 72.5726 24.2119Z" fill="#FB503B"/>
</svg>
